<mxfile host="app.diagrams.net" modified="2023-06-07T11:01:00.732Z" agent="Mozilla/5.0 (Windows NT 10.0; Win64; x64) AppleWebKit/537.36 (KHTML, like Gecko) Chrome/114.0.0.0 Safari/537.36" etag="GCocCIrTJ6ICDkl7tLd_" version="21.3.7" type="device">
  <diagram id="53IQXVl9icCSp_Kw3Ib1" name="Page-1">
    <mxGraphModel dx="1094" dy="449" grid="0" gridSize="10" guides="1" tooltips="1" connect="1" arrows="1" fold="1" page="1" pageScale="1" pageWidth="1100" pageHeight="850" math="0" shadow="0">
      <root>
        <mxCell id="0" />
        <mxCell id="1" parent="0" />
        <mxCell id="uWUnNED6HEl2aK5fdaIb-8" value="" style="edgeStyle=orthogonalEdgeStyle;rounded=0;html=1;jettySize=auto;orthogonalLoop=1;plain-blue;endArrow=none;endFill=0;strokeWidth=4;strokeColor=#000000;entryX=0;entryY=0.5;entryDx=0;entryDy=0;entryPerimeter=0;fontSize=14;" parent="1" source="uWUnNED6HEl2aK5fdaIb-10" target="9hBKPDzoitwpIBdzFDQ7-16" edge="1">
          <mxGeometry x="292.25" y="211" as="geometry">
            <mxPoint x="442.25" y="211" as="targetPoint" />
          </mxGeometry>
        </mxCell>
        <mxCell id="uWUnNED6HEl2aK5fdaIb-9" style="edgeStyle=orthogonalEdgeStyle;curved=1;rounded=0;html=1;exitX=1;exitY=0.5;exitPerimeter=0;entryX=0;entryY=0.5;entryPerimeter=0;endArrow=none;endFill=0;jettySize=auto;orthogonalLoop=1;strokeWidth=4;fontSize=14;" parent="1" source="uWUnNED6HEl2aK5fdaIb-10" target="uWUnNED6HEl2aK5fdaIb-15" edge="1">
          <mxGeometry relative="1" as="geometry" />
        </mxCell>
        <mxCell id="uWUnNED6HEl2aK5fdaIb-10" value="" style="verticalLabelPosition=bottom;verticalAlign=top;html=1;strokeWidth=4;shape=mxgraph.flowchart.on-page_reference;fillColor=#d5e8d4;strokeColor=#000000;fontSize=14;" parent="1" vertex="1">
          <mxGeometry x="262.25" y="196" width="30" height="30" as="geometry" />
        </mxCell>
        <mxCell id="uWUnNED6HEl2aK5fdaIb-80" value="" style="edgeStyle=orthogonalEdgeStyle;curved=1;rounded=0;orthogonalLoop=1;jettySize=auto;html=1;endArrow=none;endFill=0;strokeWidth=4;entryX=0;entryY=0.5;entryDx=0;entryDy=0;entryPerimeter=0;fontSize=14;" parent="1" source="uWUnNED6HEl2aK5fdaIb-11" target="uWUnNED6HEl2aK5fdaIb-109" edge="1">
          <mxGeometry relative="1" as="geometry">
            <mxPoint x="734.4999999999995" y="211" as="targetPoint" />
          </mxGeometry>
        </mxCell>
        <mxCell id="uWUnNED6HEl2aK5fdaIb-105" style="edgeStyle=orthogonalEdgeStyle;curved=1;rounded=0;orthogonalLoop=1;jettySize=auto;html=1;exitX=1;exitY=0.5;exitDx=0;exitDy=0;exitPerimeter=0;entryX=0;entryY=0.5;entryDx=0;entryDy=0;entryPerimeter=0;endArrow=none;endFill=0;strokeWidth=4;fontFamily=Courier New;fontColor=#009900;fontSize=14;" parent="1" source="uWUnNED6HEl2aK5fdaIb-11" target="uWUnNED6HEl2aK5fdaIb-104" edge="1">
          <mxGeometry relative="1" as="geometry" />
        </mxCell>
        <mxCell id="uWUnNED6HEl2aK5fdaIb-11" value="" style="verticalLabelPosition=bottom;verticalAlign=top;html=1;strokeWidth=4;shape=mxgraph.flowchart.on-page_reference;plain-blue;gradientColor=none;strokeColor=#000000;fillColor=#B5E3FE;fontSize=14;" parent="1" vertex="1">
          <mxGeometry x="622.25" y="196" width="30" height="30" as="geometry" />
        </mxCell>
        <mxCell id="uWUnNED6HEl2aK5fdaIb-109" value="" style="verticalLabelPosition=bottom;verticalAlign=top;html=1;strokeWidth=4;shape=mxgraph.flowchart.on-page_reference;plain-blue;gradientColor=none;strokeColor=#33001A;fillColor=#B5E3FE;fontSize=14;" parent="1" vertex="1">
          <mxGeometry x="861.25" y="196" width="30" height="30" as="geometry" />
        </mxCell>
        <mxCell id="uWUnNED6HEl2aK5fdaIb-12" value="" style="edgeStyle=orthogonalEdgeStyle;rounded=0;html=1;jettySize=auto;orthogonalLoop=1;strokeWidth=4;endArrow=none;endFill=0;" parent="1" target="uWUnNED6HEl2aK5fdaIb-10" edge="1">
          <mxGeometry x="192.25" y="211" as="geometry">
            <mxPoint x="150" y="211" as="sourcePoint" />
          </mxGeometry>
        </mxCell>
        <mxCell id="uWUnNED6HEl2aK5fdaIb-13" value="main" style="text;html=1;strokeColor=none;fillColor=none;align=center;verticalAlign=middle;whiteSpace=wrap;overflow=hidden;fontSize=14;fontStyle=1;fontFamily=Courier New;" parent="1" vertex="1">
          <mxGeometry x="83" y="190" width="50" height="42" as="geometry" />
        </mxCell>
        <mxCell id="uWUnNED6HEl2aK5fdaIb-14" style="edgeStyle=orthogonalEdgeStyle;curved=1;rounded=0;html=1;exitX=1;exitY=0.5;exitPerimeter=0;endArrow=none;endFill=0;jettySize=auto;orthogonalLoop=1;strokeWidth=4;fontSize=14;" parent="1" source="uWUnNED6HEl2aK5fdaIb-15" target="uWUnNED6HEl2aK5fdaIb-17" edge="1">
          <mxGeometry relative="1" as="geometry" />
        </mxCell>
        <mxCell id="uWUnNED6HEl2aK5fdaIb-15" value="" style="verticalLabelPosition=bottom;verticalAlign=top;html=1;strokeWidth=4;shape=mxgraph.flowchart.on-page_reference;plain-purple;gradientColor=none;strokeColor=#000000;fillColor=#D5E8D4;fontSize=14;" parent="1" vertex="1">
          <mxGeometry x="339.75" y="281" width="30" height="30" as="geometry" />
        </mxCell>
        <mxCell id="uWUnNED6HEl2aK5fdaIb-16" style="edgeStyle=orthogonalEdgeStyle;curved=1;rounded=0;html=1;exitX=1;exitY=0.5;exitPerimeter=0;entryX=0;entryY=0.5;entryPerimeter=0;endArrow=none;endFill=0;jettySize=auto;orthogonalLoop=1;strokeWidth=4;fontSize=14;" parent="1" source="uWUnNED6HEl2aK5fdaIb-17" target="uWUnNED6HEl2aK5fdaIb-19" edge="1">
          <mxGeometry relative="1" as="geometry" />
        </mxCell>
        <mxCell id="uWUnNED6HEl2aK5fdaIb-17" value="" style="verticalLabelPosition=bottom;verticalAlign=top;html=1;strokeWidth=4;shape=mxgraph.flowchart.on-page_reference;plain-purple;gradientColor=none;strokeColor=#000000;fillColor=#D5E8D4;fontSize=14;" parent="1" vertex="1">
          <mxGeometry x="446.75" y="281" width="30" height="30" as="geometry" />
        </mxCell>
        <mxCell id="nL2CvM_2TXP2n6H3hURv-2" value="" style="edgeStyle=orthogonalEdgeStyle;rounded=0;orthogonalLoop=1;jettySize=auto;html=1;strokeWidth=4;endArrow=none;endFill=0;fontSize=14;" parent="1" source="uWUnNED6HEl2aK5fdaIb-19" target="uWUnNED6HEl2aK5fdaIb-104" edge="1">
          <mxGeometry relative="1" as="geometry" />
        </mxCell>
        <mxCell id="uWUnNED6HEl2aK5fdaIb-19" value="" style="verticalLabelPosition=bottom;verticalAlign=top;html=1;strokeWidth=4;shape=mxgraph.flowchart.on-page_reference;plain-purple;gradientColor=none;strokeColor=#000000;fillColor=#D5E8D4;fontSize=14;" parent="1" vertex="1">
          <mxGeometry x="549.75" y="281" width="30" height="30" as="geometry" />
        </mxCell>
        <mxCell id="uWUnNED6HEl2aK5fdaIb-20" value="feature" style="text;html=1;strokeColor=none;fillColor=none;align=left;verticalAlign=middle;whiteSpace=wrap;overflow=hidden;fontSize=14;fontStyle=1;fontFamily=Courier New;" parent="1" vertex="1">
          <mxGeometry x="88.75" y="286" width="240" height="20" as="geometry" />
        </mxCell>
        <mxCell id="uWUnNED6HEl2aK5fdaIb-89" value="The feature branch" style="text;html=1;strokeColor=none;fillColor=none;align=left;verticalAlign=middle;whiteSpace=wrap;overflow=hidden;fontSize=14;fontStyle=0;fontColor=#009900;" parent="1" vertex="1">
          <mxGeometry x="86.75" y="306" width="240" height="20" as="geometry" />
        </mxCell>
        <mxCell id="uWUnNED6HEl2aK5fdaIb-90" value="The main branch&lt;br&gt;" style="text;html=1;strokeColor=none;fillColor=none;align=left;verticalAlign=middle;whiteSpace=wrap;overflow=hidden;fontSize=14;fontStyle=0;fontColor=#009900;" parent="1" vertex="1">
          <mxGeometry x="88.25" y="220" width="146.75" height="20" as="geometry" />
        </mxCell>
        <mxCell id="uWUnNED6HEl2aK5fdaIb-107" value="" style="edgeStyle=orthogonalEdgeStyle;curved=1;rounded=0;orthogonalLoop=1;jettySize=auto;html=1;endArrow=none;endFill=0;strokeWidth=4;fontFamily=Courier New;fontColor=#009900;fontSize=14;" parent="1" source="uWUnNED6HEl2aK5fdaIb-104" target="uWUnNED6HEl2aK5fdaIb-106" edge="1">
          <mxGeometry relative="1" as="geometry" />
        </mxCell>
        <mxCell id="uWUnNED6HEl2aK5fdaIb-104" value="" style="verticalLabelPosition=bottom;verticalAlign=top;html=1;strokeWidth=4;shape=mxgraph.flowchart.on-page_reference;plain-purple;gradientColor=none;strokeColor=#000000;fillColor=#D5E8D4;fontSize=14;" parent="1" vertex="1">
          <mxGeometry x="696.75" y="281" width="30" height="30" as="geometry" />
        </mxCell>
        <mxCell id="uWUnNED6HEl2aK5fdaIb-115" style="edgeStyle=orthogonalEdgeStyle;curved=1;rounded=0;orthogonalLoop=1;jettySize=auto;html=1;entryX=0;entryY=0.5;entryDx=0;entryDy=0;entryPerimeter=0;endArrow=none;endFill=0;strokeWidth=4;fontFamily=Courier New;fontColor=#009900;fontSize=14;" parent="1" source="uWUnNED6HEl2aK5fdaIb-106" target="uWUnNED6HEl2aK5fdaIb-109" edge="1">
          <mxGeometry relative="1" as="geometry" />
        </mxCell>
        <mxCell id="uWUnNED6HEl2aK5fdaIb-106" value="" style="verticalLabelPosition=bottom;verticalAlign=top;html=1;strokeWidth=4;shape=mxgraph.flowchart.on-page_reference;plain-purple;gradientColor=none;strokeColor=#000000;fillColor=#D5E8D4;fontSize=14;" parent="1" vertex="1">
          <mxGeometry x="786.75" y="281" width="30" height="30" as="geometry" />
        </mxCell>
        <mxCell id="fSnZ5vnYTslC5NarKmr_-11" value="Original" style="text;html=1;strokeColor=none;fillColor=none;align=center;verticalAlign=middle;whiteSpace=wrap;rounded=0;fontSize=33;fontColor=#000000;" parent="1" vertex="1">
          <mxGeometry x="248.75" y="130" width="538" height="40" as="geometry" />
        </mxCell>
        <mxCell id="9hBKPDzoitwpIBdzFDQ7-21" value="" style="edgeStyle=orthogonalEdgeStyle;rounded=0;orthogonalLoop=1;jettySize=auto;html=1;fontSize=14;endArrow=none;endFill=0;strokeWidth=4;entryX=0;entryY=0.5;entryDx=0;entryDy=0;entryPerimeter=0;" parent="1" source="9hBKPDzoitwpIBdzFDQ7-16" target="uWUnNED6HEl2aK5fdaIb-11" edge="1">
          <mxGeometry relative="1" as="geometry">
            <mxPoint x="560.25" y="211" as="targetPoint" />
          </mxGeometry>
        </mxCell>
        <mxCell id="9hBKPDzoitwpIBdzFDQ7-16" value="" style="verticalLabelPosition=bottom;verticalAlign=top;html=1;strokeWidth=4;shape=mxgraph.flowchart.on-page_reference;strokeColor=#000000;fillColor=#d5e8d4;fontSize=14;" parent="1" vertex="1">
          <mxGeometry x="452.25" y="196" width="30" height="30" as="geometry" />
        </mxCell>
        <mxCell id="nL2CvM_2TXP2n6H3hURv-4" style="edgeStyle=orthogonalEdgeStyle;curved=1;rounded=0;html=1;exitX=1;exitY=0.5;exitPerimeter=0;entryX=0;entryY=0.5;entryPerimeter=0;endArrow=none;endFill=0;jettySize=auto;orthogonalLoop=1;strokeWidth=4;fontSize=30;" parent="1" source="nL2CvM_2TXP2n6H3hURv-5" target="nL2CvM_2TXP2n6H3hURv-13" edge="1">
          <mxGeometry relative="1" as="geometry" />
        </mxCell>
        <mxCell id="nL2CvM_2TXP2n6H3hURv-5" value="M1" style="verticalLabelPosition=bottom;verticalAlign=top;html=1;strokeWidth=4;shape=mxgraph.flowchart.on-page_reference;fillColor=#d5e8d4;strokeColor=#000000;fontSize=30;" parent="1" vertex="1">
          <mxGeometry x="1495.25" y="278" width="30" height="30" as="geometry" />
        </mxCell>
        <mxCell id="nL2CvM_2TXP2n6H3hURv-10" value="" style="edgeStyle=orthogonalEdgeStyle;rounded=0;html=1;jettySize=auto;orthogonalLoop=1;strokeWidth=4;endArrow=none;endFill=0;fontSize=23;" parent="1" target="nL2CvM_2TXP2n6H3hURv-5" edge="1">
          <mxGeometry x="1425.25" y="293" as="geometry">
            <mxPoint x="1383" y="293" as="sourcePoint" />
          </mxGeometry>
        </mxCell>
        <mxCell id="nL2CvM_2TXP2n6H3hURv-11" value="main" style="text;html=1;strokeColor=none;fillColor=none;align=center;verticalAlign=middle;whiteSpace=wrap;overflow=hidden;fontSize=23;fontStyle=1;fontFamily=Courier New;" parent="1" vertex="1">
          <mxGeometry x="1254" y="272" width="77" height="42" as="geometry" />
        </mxCell>
        <mxCell id="nL2CvM_2TXP2n6H3hURv-12" style="edgeStyle=orthogonalEdgeStyle;curved=1;rounded=0;html=1;exitX=1;exitY=0.5;exitPerimeter=0;endArrow=none;endFill=0;jettySize=auto;orthogonalLoop=1;strokeWidth=4;fontSize=30;entryX=0;entryY=0.5;entryDx=0;entryDy=0;entryPerimeter=0;" parent="1" source="nL2CvM_2TXP2n6H3hURv-13" target="nL2CvM_2TXP2n6H3hURv-15" edge="1">
          <mxGeometry relative="1" as="geometry">
            <Array as="points">
              <mxPoint x="1676" y="292" />
              <mxPoint x="1676" y="378" />
            </Array>
          </mxGeometry>
        </mxCell>
        <mxCell id="nL2CvM_2TXP2n6H3hURv-13" value="M2" style="verticalLabelPosition=bottom;verticalAlign=top;html=1;strokeWidth=4;shape=mxgraph.flowchart.on-page_reference;plain-purple;gradientColor=none;strokeColor=#000000;fillColor=#D5E8D4;fontSize=30;" parent="1" vertex="1">
          <mxGeometry x="1606" y="278" width="30" height="30" as="geometry" />
        </mxCell>
        <mxCell id="nL2CvM_2TXP2n6H3hURv-14" style="edgeStyle=orthogonalEdgeStyle;curved=1;rounded=0;html=1;exitX=1;exitY=0.5;exitPerimeter=0;entryX=0;entryY=0.5;entryPerimeter=0;endArrow=none;endFill=0;jettySize=auto;orthogonalLoop=1;strokeWidth=4;fontSize=30;" parent="1" source="nL2CvM_2TXP2n6H3hURv-15" target="nL2CvM_2TXP2n6H3hURv-17" edge="1">
          <mxGeometry relative="1" as="geometry" />
        </mxCell>
        <mxCell id="nL2CvM_2TXP2n6H3hURv-15" value="F1" style="verticalLabelPosition=bottom;verticalAlign=top;html=1;strokeWidth=4;shape=mxgraph.flowchart.on-page_reference;plain-purple;gradientColor=none;strokeColor=#000000;fillColor=#D5E8D4;fontSize=30;" parent="1" vertex="1">
          <mxGeometry x="1716" y="363" width="30" height="30" as="geometry" />
        </mxCell>
        <mxCell id="nL2CvM_2TXP2n6H3hURv-17" value="F2" style="verticalLabelPosition=bottom;verticalAlign=top;html=1;strokeWidth=4;shape=mxgraph.flowchart.on-page_reference;plain-purple;gradientColor=none;strokeColor=#000000;fillColor=#D5E8D4;fontSize=30;" parent="1" vertex="1">
          <mxGeometry x="1816" y="363" width="30" height="30" as="geometry" />
        </mxCell>
        <mxCell id="nL2CvM_2TXP2n6H3hURv-18" value="feature" style="text;html=1;strokeColor=none;fillColor=none;align=left;verticalAlign=middle;whiteSpace=wrap;overflow=hidden;fontSize=23;fontStyle=1;fontFamily=Courier New;" parent="1" vertex="1">
          <mxGeometry x="1254" y="364" width="258" height="40" as="geometry" />
        </mxCell>
        <mxCell id="nL2CvM_2TXP2n6H3hURv-19" value="The feature branch" style="text;html=1;strokeColor=none;fillColor=none;align=left;verticalAlign=middle;whiteSpace=wrap;overflow=hidden;fontSize=23;fontStyle=0;fontColor=#009900;" parent="1" vertex="1">
          <mxGeometry x="1254" y="390" width="348" height="43" as="geometry" />
        </mxCell>
        <mxCell id="nL2CvM_2TXP2n6H3hURv-20" value="The main branch&lt;br style=&quot;font-size: 23px;&quot;&gt;" style="text;html=1;strokeColor=none;fillColor=none;align=left;verticalAlign=middle;whiteSpace=wrap;overflow=hidden;fontSize=23;fontStyle=0;fontColor=#009900;" parent="1" vertex="1">
          <mxGeometry x="1258.25" y="299" width="264" height="42" as="geometry" />
        </mxCell>
        <mxCell id="nL2CvM_2TXP2n6H3hURv-52" style="edgeStyle=orthogonalEdgeStyle;curved=1;rounded=0;html=1;exitX=1;exitY=0.5;exitPerimeter=0;entryX=0;entryY=0.5;entryPerimeter=0;endArrow=none;endFill=0;jettySize=auto;orthogonalLoop=1;strokeWidth=4;fontSize=30;" parent="1" source="nL2CvM_2TXP2n6H3hURv-53" target="nL2CvM_2TXP2n6H3hURv-57" edge="1">
          <mxGeometry relative="1" as="geometry" />
        </mxCell>
        <mxCell id="nL2CvM_2TXP2n6H3hURv-53" value="M1" style="verticalLabelPosition=bottom;verticalAlign=top;html=1;strokeWidth=4;shape=mxgraph.flowchart.on-page_reference;fillColor=#d5e8d4;strokeColor=#000000;fontSize=30;" parent="1" vertex="1">
          <mxGeometry x="1499" y="518" width="30" height="30" as="geometry" />
        </mxCell>
        <mxCell id="nL2CvM_2TXP2n6H3hURv-54" value="" style="edgeStyle=orthogonalEdgeStyle;rounded=0;html=1;jettySize=auto;orthogonalLoop=1;strokeWidth=4;endArrow=none;endFill=0;fontSize=23;" parent="1" target="nL2CvM_2TXP2n6H3hURv-53" edge="1">
          <mxGeometry x="1429" y="533" as="geometry">
            <mxPoint x="1386.75" y="533" as="sourcePoint" />
          </mxGeometry>
        </mxCell>
        <mxCell id="nL2CvM_2TXP2n6H3hURv-56" style="edgeStyle=orthogonalEdgeStyle;curved=1;rounded=0;html=1;exitX=1;exitY=0.5;exitPerimeter=0;endArrow=none;endFill=0;jettySize=auto;orthogonalLoop=1;strokeWidth=4;fontSize=30;entryX=0;entryY=0.5;entryDx=0;entryDy=0;entryPerimeter=0;" parent="1" source="nL2CvM_2TXP2n6H3hURv-57" target="nL2CvM_2TXP2n6H3hURv-59" edge="1">
          <mxGeometry relative="1" as="geometry">
            <Array as="points">
              <mxPoint x="1679.75" y="532" />
              <mxPoint x="1679.75" y="618" />
            </Array>
          </mxGeometry>
        </mxCell>
        <mxCell id="nL2CvM_2TXP2n6H3hURv-57" value="M2" style="verticalLabelPosition=bottom;verticalAlign=top;html=1;strokeWidth=4;shape=mxgraph.flowchart.on-page_reference;plain-purple;gradientColor=none;strokeColor=#000000;fillColor=#D5E8D4;fontSize=30;" parent="1" vertex="1">
          <mxGeometry x="1609.75" y="518" width="30" height="30" as="geometry" />
        </mxCell>
        <mxCell id="nL2CvM_2TXP2n6H3hURv-58" style="edgeStyle=orthogonalEdgeStyle;curved=1;rounded=0;html=1;exitX=1;exitY=0.5;exitPerimeter=0;entryX=0;entryY=0.5;entryPerimeter=0;endArrow=none;endFill=0;jettySize=auto;orthogonalLoop=1;strokeWidth=4;fontSize=30;" parent="1" source="nL2CvM_2TXP2n6H3hURv-59" target="nL2CvM_2TXP2n6H3hURv-60" edge="1">
          <mxGeometry relative="1" as="geometry" />
        </mxCell>
        <mxCell id="nL2CvM_2TXP2n6H3hURv-59" value="F1" style="verticalLabelPosition=bottom;verticalAlign=top;html=1;strokeWidth=4;shape=mxgraph.flowchart.on-page_reference;plain-purple;gradientColor=none;strokeColor=#000000;fillColor=#D5E8D4;fontSize=30;" parent="1" vertex="1">
          <mxGeometry x="1719.75" y="603" width="30" height="30" as="geometry" />
        </mxCell>
        <mxCell id="nL2CvM_2TXP2n6H3hURv-60" value="F2^" style="verticalLabelPosition=bottom;verticalAlign=top;html=1;strokeWidth=4;shape=mxgraph.flowchart.on-page_reference;strokeColor=#000000;fillColor=#fff2cc;fontSize=30;" parent="1" vertex="1">
          <mxGeometry x="1819.75" y="603" width="30" height="30" as="geometry" />
        </mxCell>
        <mxCell id="nL2CvM_2TXP2n6H3hURv-66" style="edgeStyle=orthogonalEdgeStyle;curved=1;rounded=0;html=1;exitX=1;exitY=0.5;exitPerimeter=0;entryX=0;entryY=0.5;entryPerimeter=0;endArrow=none;endFill=0;jettySize=auto;orthogonalLoop=1;strokeWidth=4;fontSize=30;" parent="1" source="nL2CvM_2TXP2n6H3hURv-67" target="nL2CvM_2TXP2n6H3hURv-75" edge="1">
          <mxGeometry relative="1" as="geometry" />
        </mxCell>
        <mxCell id="nL2CvM_2TXP2n6H3hURv-67" value="M1" style="verticalLabelPosition=bottom;verticalAlign=top;html=1;strokeWidth=4;shape=mxgraph.flowchart.on-page_reference;fillColor=#d5e8d4;strokeColor=#000000;fontSize=30;" parent="1" vertex="1">
          <mxGeometry x="2449.25" y="233" width="30" height="30" as="geometry" />
        </mxCell>
        <mxCell id="nL2CvM_2TXP2n6H3hURv-72" value="" style="edgeStyle=orthogonalEdgeStyle;rounded=0;html=1;jettySize=auto;orthogonalLoop=1;strokeWidth=4;endArrow=none;endFill=0;" parent="1" target="nL2CvM_2TXP2n6H3hURv-67" edge="1">
          <mxGeometry x="2379.25" y="248" as="geometry">
            <mxPoint x="2337" y="248" as="sourcePoint" />
          </mxGeometry>
        </mxCell>
        <mxCell id="nL2CvM_2TXP2n6H3hURv-74" style="edgeStyle=orthogonalEdgeStyle;curved=1;rounded=0;html=1;exitX=1;exitY=0.5;exitPerimeter=0;endArrow=none;endFill=0;jettySize=auto;orthogonalLoop=1;strokeWidth=4;fontSize=30;" parent="1" source="nL2CvM_2TXP2n6H3hURv-75" target="nL2CvM_2TXP2n6H3hURv-77" edge="1">
          <mxGeometry relative="1" as="geometry" />
        </mxCell>
        <mxCell id="nL2CvM_2TXP2n6H3hURv-75" value="F1" style="verticalLabelPosition=bottom;verticalAlign=top;html=1;strokeWidth=4;shape=mxgraph.flowchart.on-page_reference;plain-purple;gradientColor=none;strokeColor=#000000;fillColor=#D5E8D4;fontSize=30;" parent="1" vertex="1">
          <mxGeometry x="2526.75" y="318" width="30" height="30" as="geometry" />
        </mxCell>
        <mxCell id="nL2CvM_2TXP2n6H3hURv-76" style="edgeStyle=orthogonalEdgeStyle;curved=1;rounded=0;html=1;exitX=1;exitY=0.5;exitPerimeter=0;entryX=0;entryY=0.5;entryPerimeter=0;endArrow=none;endFill=0;jettySize=auto;orthogonalLoop=1;strokeWidth=4;fontSize=30;" parent="1" source="nL2CvM_2TXP2n6H3hURv-77" target="nL2CvM_2TXP2n6H3hURv-79" edge="1">
          <mxGeometry relative="1" as="geometry" />
        </mxCell>
        <mxCell id="nL2CvM_2TXP2n6H3hURv-77" value="F2" style="verticalLabelPosition=bottom;verticalAlign=top;html=1;strokeWidth=4;shape=mxgraph.flowchart.on-page_reference;strokeColor=#000000;fillColor=#fff2cc;fontSize=30;" parent="1" vertex="1">
          <mxGeometry x="2633.75" y="318" width="30" height="30" as="geometry" />
        </mxCell>
        <mxCell id="nL2CvM_2TXP2n6H3hURv-78" value="" style="edgeStyle=orthogonalEdgeStyle;rounded=0;orthogonalLoop=1;jettySize=auto;html=1;strokeWidth=4;endArrow=none;endFill=0;fontSize=30;" parent="1" source="nL2CvM_2TXP2n6H3hURv-79" target="nL2CvM_2TXP2n6H3hURv-86" edge="1">
          <mxGeometry relative="1" as="geometry">
            <mxPoint x="2883.7500000000005" y="333" as="targetPoint" />
          </mxGeometry>
        </mxCell>
        <mxCell id="nL2CvM_2TXP2n6H3hURv-79" value="F3" style="verticalLabelPosition=bottom;verticalAlign=top;html=1;strokeWidth=4;shape=mxgraph.flowchart.on-page_reference;strokeColor=#000000;fillColor=#e1d5e7;fontSize=30;" parent="1" vertex="1">
          <mxGeometry x="2736.75" y="318" width="30" height="30" as="geometry" />
        </mxCell>
        <mxCell id="nL2CvM_2TXP2n6H3hURv-86" value="F4" style="verticalLabelPosition=bottom;verticalAlign=top;html=1;strokeWidth=4;shape=mxgraph.flowchart.on-page_reference;plain-purple;gradientColor=none;strokeColor=#000000;fillColor=#D5E8D4;fontSize=30;" parent="1" vertex="1">
          <mxGeometry x="2840" y="318" width="30" height="30" as="geometry" />
        </mxCell>
        <mxCell id="nL2CvM_2TXP2n6H3hURv-90" style="edgeStyle=orthogonalEdgeStyle;curved=1;rounded=0;html=1;exitX=1;exitY=0.5;exitPerimeter=0;entryX=0;entryY=0.5;entryPerimeter=0;endArrow=none;endFill=0;jettySize=auto;orthogonalLoop=1;strokeWidth=4;fontSize=30;" parent="1" source="nL2CvM_2TXP2n6H3hURv-91" target="nL2CvM_2TXP2n6H3hURv-97" edge="1">
          <mxGeometry relative="1" as="geometry" />
        </mxCell>
        <mxCell id="nL2CvM_2TXP2n6H3hURv-91" value="M1" style="verticalLabelPosition=bottom;verticalAlign=top;html=1;strokeWidth=4;shape=mxgraph.flowchart.on-page_reference;fillColor=#d5e8d4;strokeColor=#000000;fontSize=30;" parent="1" vertex="1">
          <mxGeometry x="2455" y="488" width="30" height="30" as="geometry" />
        </mxCell>
        <mxCell id="nL2CvM_2TXP2n6H3hURv-94" value="" style="edgeStyle=orthogonalEdgeStyle;rounded=0;html=1;jettySize=auto;orthogonalLoop=1;strokeWidth=4;endArrow=none;endFill=0;" parent="1" target="nL2CvM_2TXP2n6H3hURv-91" edge="1">
          <mxGeometry x="2385" y="503" as="geometry">
            <mxPoint x="2342.75" y="503" as="sourcePoint" />
          </mxGeometry>
        </mxCell>
        <mxCell id="nL2CvM_2TXP2n6H3hURv-96" style="edgeStyle=orthogonalEdgeStyle;curved=1;rounded=0;html=1;exitX=1;exitY=0.5;exitPerimeter=0;endArrow=none;endFill=0;jettySize=auto;orthogonalLoop=1;strokeWidth=4;fontSize=30;" parent="1" source="nL2CvM_2TXP2n6H3hURv-97" target="nL2CvM_2TXP2n6H3hURv-99" edge="1">
          <mxGeometry relative="1" as="geometry" />
        </mxCell>
        <mxCell id="nL2CvM_2TXP2n6H3hURv-97" value="F1" style="verticalLabelPosition=bottom;verticalAlign=top;html=1;strokeWidth=4;shape=mxgraph.flowchart.on-page_reference;plain-purple;gradientColor=none;strokeColor=#000000;fillColor=#D5E8D4;fontSize=30;" parent="1" vertex="1">
          <mxGeometry x="2532.5" y="573" width="30" height="30" as="geometry" />
        </mxCell>
        <mxCell id="nL2CvM_2TXP2n6H3hURv-98" style="edgeStyle=orthogonalEdgeStyle;curved=1;rounded=0;html=1;exitX=1;exitY=0.5;exitPerimeter=0;entryX=0;entryY=0.5;entryPerimeter=0;endArrow=none;endFill=0;jettySize=auto;orthogonalLoop=1;strokeWidth=4;fontSize=30;" parent="1" source="nL2CvM_2TXP2n6H3hURv-99" target="nL2CvM_2TXP2n6H3hURv-101" edge="1">
          <mxGeometry relative="1" as="geometry" />
        </mxCell>
        <mxCell id="nL2CvM_2TXP2n6H3hURv-99" value="F3^" style="verticalLabelPosition=bottom;verticalAlign=top;html=1;strokeWidth=4;shape=mxgraph.flowchart.on-page_reference;strokeColor=#000000;fillColor=#e1d5e7;fontSize=30;" parent="1" vertex="1">
          <mxGeometry x="2639.5" y="573" width="30" height="30" as="geometry" />
        </mxCell>
        <mxCell id="nL2CvM_2TXP2n6H3hURv-100" value="" style="edgeStyle=orthogonalEdgeStyle;rounded=0;orthogonalLoop=1;jettySize=auto;html=1;strokeWidth=4;endArrow=none;endFill=0;fontSize=30;" parent="1" source="nL2CvM_2TXP2n6H3hURv-101" target="nL2CvM_2TXP2n6H3hURv-106" edge="1">
          <mxGeometry relative="1" as="geometry">
            <mxPoint x="2889.5000000000005" y="588" as="targetPoint" />
          </mxGeometry>
        </mxCell>
        <mxCell id="nL2CvM_2TXP2n6H3hURv-101" value="F2^" style="verticalLabelPosition=bottom;verticalAlign=top;html=1;strokeWidth=4;shape=mxgraph.flowchart.on-page_reference;strokeColor=#000000;fillColor=#fff2cc;fontSize=30;" parent="1" vertex="1">
          <mxGeometry x="2742.5" y="573" width="30" height="30" as="geometry" />
        </mxCell>
        <mxCell id="nL2CvM_2TXP2n6H3hURv-106" value="F4^" style="verticalLabelPosition=bottom;verticalAlign=top;html=1;strokeWidth=4;shape=mxgraph.flowchart.on-page_reference;plain-purple;gradientColor=none;strokeColor=#000000;fillColor=#D5E8D4;fontSize=30;" parent="1" vertex="1">
          <mxGeometry x="2845.75" y="573" width="30" height="30" as="geometry" />
        </mxCell>
        <mxCell id="nL2CvM_2TXP2n6H3hURv-133" value="" style="shape=flexArrow;endArrow=classic;html=1;rounded=0;fontSize=30;" parent="1" edge="1">
          <mxGeometry width="50" height="50" relative="1" as="geometry">
            <mxPoint x="2687" y="394" as="sourcePoint" />
            <mxPoint x="2687" y="469" as="targetPoint" />
          </mxGeometry>
        </mxCell>
        <mxCell id="nL2CvM_2TXP2n6H3hURv-134" style="edgeStyle=orthogonalEdgeStyle;curved=1;rounded=0;html=1;exitX=1;exitY=0.5;exitPerimeter=0;entryX=0;entryY=0.5;entryPerimeter=0;endArrow=none;endFill=0;jettySize=auto;orthogonalLoop=1;strokeWidth=4;fontSize=30;" parent="1" source="nL2CvM_2TXP2n6H3hURv-135" target="nL2CvM_2TXP2n6H3hURv-141" edge="1">
          <mxGeometry relative="1" as="geometry" />
        </mxCell>
        <mxCell id="nL2CvM_2TXP2n6H3hURv-135" value="M1" style="verticalLabelPosition=bottom;verticalAlign=top;html=1;strokeWidth=4;shape=mxgraph.flowchart.on-page_reference;fillColor=#d5e8d4;strokeColor=#000000;fontSize=30;" parent="1" vertex="1">
          <mxGeometry x="3621.25" y="232" width="30" height="30" as="geometry" />
        </mxCell>
        <mxCell id="nL2CvM_2TXP2n6H3hURv-138" value="" style="edgeStyle=orthogonalEdgeStyle;rounded=0;html=1;jettySize=auto;orthogonalLoop=1;strokeWidth=4;endArrow=none;endFill=0;" parent="1" target="nL2CvM_2TXP2n6H3hURv-135" edge="1">
          <mxGeometry x="3551.25" y="247" as="geometry">
            <mxPoint x="3509" y="247" as="sourcePoint" />
          </mxGeometry>
        </mxCell>
        <mxCell id="nL2CvM_2TXP2n6H3hURv-140" style="edgeStyle=orthogonalEdgeStyle;curved=1;rounded=0;html=1;exitX=1;exitY=0.5;exitPerimeter=0;endArrow=none;endFill=0;jettySize=auto;orthogonalLoop=1;strokeWidth=4;fontSize=30;" parent="1" source="nL2CvM_2TXP2n6H3hURv-141" target="nL2CvM_2TXP2n6H3hURv-143" edge="1">
          <mxGeometry relative="1" as="geometry" />
        </mxCell>
        <mxCell id="nL2CvM_2TXP2n6H3hURv-141" value="F1" style="verticalLabelPosition=bottom;verticalAlign=top;html=1;strokeWidth=4;shape=mxgraph.flowchart.on-page_reference;plain-purple;gradientColor=none;strokeColor=#000000;fillColor=#D5E8D4;fontSize=30;" parent="1" vertex="1">
          <mxGeometry x="3698.75" y="317" width="30" height="30" as="geometry" />
        </mxCell>
        <mxCell id="nL2CvM_2TXP2n6H3hURv-143" value="F2" style="verticalLabelPosition=bottom;verticalAlign=top;html=1;strokeWidth=4;shape=mxgraph.flowchart.on-page_reference;strokeColor=#000000;fillColor=#fff2cc;fontSize=30;" parent="1" vertex="1">
          <mxGeometry x="3856" y="317" width="30" height="30" as="geometry" />
        </mxCell>
        <mxCell id="nL2CvM_2TXP2n6H3hURv-144" value="" style="edgeStyle=orthogonalEdgeStyle;rounded=0;orthogonalLoop=1;jettySize=auto;html=1;strokeWidth=4;endArrow=none;endFill=0;fontSize=30;exitX=1;exitY=0.5;exitDx=0;exitDy=0;exitPerimeter=0;" parent="1" source="nL2CvM_2TXP2n6H3hURv-143" target="nL2CvM_2TXP2n6H3hURv-150" edge="1">
          <mxGeometry relative="1" as="geometry">
            <mxPoint x="4055.7500000000005" y="332" as="targetPoint" />
            <mxPoint x="3938.75" y="332" as="sourcePoint" />
          </mxGeometry>
        </mxCell>
        <mxCell id="nL2CvM_2TXP2n6H3hURv-150" value="F3" style="verticalLabelPosition=bottom;verticalAlign=top;html=1;strokeWidth=4;shape=mxgraph.flowchart.on-page_reference;plain-purple;gradientColor=none;strokeColor=#000000;fillColor=#D5E8D4;fontSize=30;" parent="1" vertex="1">
          <mxGeometry x="4012" y="317" width="30" height="30" as="geometry" />
        </mxCell>
        <mxCell id="nL2CvM_2TXP2n6H3hURv-151" style="edgeStyle=orthogonalEdgeStyle;curved=1;rounded=0;html=1;exitX=1;exitY=0.5;exitPerimeter=0;entryX=0;entryY=0.5;entryPerimeter=0;endArrow=none;endFill=0;jettySize=auto;orthogonalLoop=1;strokeWidth=4;fontSize=30;" parent="1" source="nL2CvM_2TXP2n6H3hURv-152" target="nL2CvM_2TXP2n6H3hURv-158" edge="1">
          <mxGeometry relative="1" as="geometry" />
        </mxCell>
        <mxCell id="nL2CvM_2TXP2n6H3hURv-152" value="M1" style="verticalLabelPosition=bottom;verticalAlign=top;html=1;strokeWidth=4;shape=mxgraph.flowchart.on-page_reference;fillColor=#d5e8d4;strokeColor=#000000;fontSize=30;" parent="1" vertex="1">
          <mxGeometry x="3627" y="487" width="30" height="30" as="geometry" />
        </mxCell>
        <mxCell id="nL2CvM_2TXP2n6H3hURv-155" value="" style="edgeStyle=orthogonalEdgeStyle;rounded=0;html=1;jettySize=auto;orthogonalLoop=1;strokeWidth=4;endArrow=none;endFill=0;" parent="1" target="nL2CvM_2TXP2n6H3hURv-152" edge="1">
          <mxGeometry x="3557" y="502" as="geometry">
            <mxPoint x="3514.75" y="502" as="sourcePoint" />
          </mxGeometry>
        </mxCell>
        <mxCell id="nL2CvM_2TXP2n6H3hURv-157" style="edgeStyle=orthogonalEdgeStyle;curved=1;rounded=0;html=1;exitX=1;exitY=0.5;exitPerimeter=0;endArrow=none;endFill=0;jettySize=auto;orthogonalLoop=1;strokeWidth=4;fontSize=30;" parent="1" source="nL2CvM_2TXP2n6H3hURv-158" target="nL2CvM_2TXP2n6H3hURv-160" edge="1">
          <mxGeometry relative="1" as="geometry" />
        </mxCell>
        <mxCell id="nL2CvM_2TXP2n6H3hURv-158" value="F1" style="verticalLabelPosition=bottom;verticalAlign=top;html=1;strokeWidth=4;shape=mxgraph.flowchart.on-page_reference;plain-purple;gradientColor=none;strokeColor=#000000;fillColor=#D5E8D4;fontSize=30;" parent="1" vertex="1">
          <mxGeometry x="3704.5" y="572" width="30" height="30" as="geometry" />
        </mxCell>
        <mxCell id="nL2CvM_2TXP2n6H3hURv-159" style="edgeStyle=orthogonalEdgeStyle;curved=1;rounded=0;html=1;exitX=1;exitY=0.5;exitPerimeter=0;entryX=0;entryY=0.5;entryPerimeter=0;endArrow=none;endFill=0;jettySize=auto;orthogonalLoop=1;strokeWidth=4;fontSize=30;" parent="1" source="nL2CvM_2TXP2n6H3hURv-160" target="nL2CvM_2TXP2n6H3hURv-162" edge="1">
          <mxGeometry relative="1" as="geometry" />
        </mxCell>
        <mxCell id="nL2CvM_2TXP2n6H3hURv-160" value="F2a^" style="verticalLabelPosition=bottom;verticalAlign=top;html=1;strokeWidth=4;shape=mxgraph.flowchart.on-page_reference;strokeColor=#000000;fillColor=#e1d5e7;fontSize=30;" parent="1" vertex="1">
          <mxGeometry x="3811.5" y="572" width="30" height="30" as="geometry" />
        </mxCell>
        <mxCell id="nL2CvM_2TXP2n6H3hURv-161" value="" style="edgeStyle=orthogonalEdgeStyle;rounded=0;orthogonalLoop=1;jettySize=auto;html=1;strokeWidth=4;endArrow=none;endFill=0;fontSize=30;" parent="1" source="nL2CvM_2TXP2n6H3hURv-162" target="nL2CvM_2TXP2n6H3hURv-167" edge="1">
          <mxGeometry relative="1" as="geometry">
            <mxPoint x="4061.5000000000005" y="587" as="targetPoint" />
          </mxGeometry>
        </mxCell>
        <mxCell id="nL2CvM_2TXP2n6H3hURv-162" value="F2b^" style="verticalLabelPosition=bottom;verticalAlign=top;html=1;strokeWidth=4;shape=mxgraph.flowchart.on-page_reference;strokeColor=#000000;fillColor=#e1d5e7;fontSize=30;" parent="1" vertex="1">
          <mxGeometry x="3914.5" y="572" width="30" height="30" as="geometry" />
        </mxCell>
        <mxCell id="nL2CvM_2TXP2n6H3hURv-167" value="F3^" style="verticalLabelPosition=bottom;verticalAlign=top;html=1;strokeWidth=4;shape=mxgraph.flowchart.on-page_reference;plain-purple;gradientColor=none;strokeColor=#000000;fillColor=#D5E8D4;fontSize=30;" parent="1" vertex="1">
          <mxGeometry x="4017.75" y="572" width="30" height="30" as="geometry" />
        </mxCell>
        <mxCell id="nL2CvM_2TXP2n6H3hURv-168" value="" style="shape=flexArrow;endArrow=classic;html=1;rounded=0;fontSize=30;" parent="1" edge="1">
          <mxGeometry width="50" height="50" relative="1" as="geometry">
            <mxPoint x="3859" y="393" as="sourcePoint" />
            <mxPoint x="3859" y="468" as="targetPoint" />
          </mxGeometry>
        </mxCell>
        <mxCell id="nL2CvM_2TXP2n6H3hURv-169" value="" style="shape=flexArrow;endArrow=classic;html=1;rounded=0;fontSize=30;" parent="1" edge="1">
          <mxGeometry width="50" height="50" relative="1" as="geometry">
            <mxPoint x="1599" y="415" as="sourcePoint" />
            <mxPoint x="1599" y="490" as="targetPoint" />
          </mxGeometry>
        </mxCell>
        <mxCell id="nL2CvM_2TXP2n6H3hURv-170" style="edgeStyle=orthogonalEdgeStyle;curved=1;rounded=0;html=1;exitX=1;exitY=0.5;exitPerimeter=0;entryX=0;entryY=0.5;entryPerimeter=0;endArrow=none;endFill=0;jettySize=auto;orthogonalLoop=1;strokeWidth=4;fontSize=30;" parent="1" source="nL2CvM_2TXP2n6H3hURv-171" target="nL2CvM_2TXP2n6H3hURv-177" edge="1">
          <mxGeometry relative="1" as="geometry" />
        </mxCell>
        <mxCell id="nL2CvM_2TXP2n6H3hURv-171" value="M1" style="verticalLabelPosition=bottom;verticalAlign=top;html=1;strokeWidth=4;shape=mxgraph.flowchart.on-page_reference;fillColor=#d5e8d4;strokeColor=#000000;fontSize=30;" parent="1" vertex="1">
          <mxGeometry x="4727.25" y="245" width="30" height="30" as="geometry" />
        </mxCell>
        <mxCell id="nL2CvM_2TXP2n6H3hURv-174" value="" style="edgeStyle=orthogonalEdgeStyle;rounded=0;html=1;jettySize=auto;orthogonalLoop=1;strokeWidth=4;endArrow=none;endFill=0;fontSize=30;" parent="1" target="nL2CvM_2TXP2n6H3hURv-171" edge="1">
          <mxGeometry x="4657.25" y="260" as="geometry">
            <mxPoint x="4615" y="260" as="sourcePoint" />
          </mxGeometry>
        </mxCell>
        <mxCell id="nL2CvM_2TXP2n6H3hURv-176" style="edgeStyle=orthogonalEdgeStyle;curved=1;rounded=0;html=1;exitX=1;exitY=0.5;exitPerimeter=0;endArrow=none;endFill=0;jettySize=auto;orthogonalLoop=1;strokeWidth=4;fontSize=30;" parent="1" source="nL2CvM_2TXP2n6H3hURv-177" target="nL2CvM_2TXP2n6H3hURv-179" edge="1">
          <mxGeometry relative="1" as="geometry" />
        </mxCell>
        <mxCell id="nL2CvM_2TXP2n6H3hURv-177" value="F1" style="verticalLabelPosition=bottom;verticalAlign=top;html=1;strokeWidth=4;shape=mxgraph.flowchart.on-page_reference;plain-purple;gradientColor=none;strokeColor=#000000;fillColor=#D5E8D4;fontSize=30;" parent="1" vertex="1">
          <mxGeometry x="4804.75" y="330" width="30" height="30" as="geometry" />
        </mxCell>
        <mxCell id="nL2CvM_2TXP2n6H3hURv-178" style="edgeStyle=orthogonalEdgeStyle;curved=1;rounded=0;html=1;exitX=1;exitY=0.5;exitPerimeter=0;entryX=0;entryY=0.5;entryPerimeter=0;endArrow=none;endFill=0;jettySize=auto;orthogonalLoop=1;strokeWidth=4;fontSize=30;fillColor=#d5e8d4;strokeColor=#000000;" parent="1" source="nL2CvM_2TXP2n6H3hURv-179" target="nL2CvM_2TXP2n6H3hURv-181" edge="1">
          <mxGeometry relative="1" as="geometry" />
        </mxCell>
        <mxCell id="nL2CvM_2TXP2n6H3hURv-179" value="F2" style="verticalLabelPosition=bottom;verticalAlign=top;html=1;strokeWidth=4;shape=mxgraph.flowchart.on-page_reference;strokeColor=#000000;fillColor=#d5e8d4;fontSize=30;" parent="1" vertex="1">
          <mxGeometry x="4911.75" y="330" width="30" height="30" as="geometry" />
        </mxCell>
        <mxCell id="nL2CvM_2TXP2n6H3hURv-180" value="" style="edgeStyle=orthogonalEdgeStyle;rounded=0;orthogonalLoop=1;jettySize=auto;html=1;strokeWidth=4;endArrow=none;endFill=0;fontSize=30;fillColor=#d5e8d4;strokeColor=#000000;" parent="1" source="nL2CvM_2TXP2n6H3hURv-181" target="nL2CvM_2TXP2n6H3hURv-186" edge="1">
          <mxGeometry relative="1" as="geometry">
            <mxPoint x="5161.75" y="345" as="targetPoint" />
          </mxGeometry>
        </mxCell>
        <mxCell id="nL2CvM_2TXP2n6H3hURv-181" value="F3" style="verticalLabelPosition=bottom;verticalAlign=top;html=1;strokeWidth=4;shape=mxgraph.flowchart.on-page_reference;strokeColor=#000000;fillColor=#f8cecc;fontSize=30;" parent="1" vertex="1">
          <mxGeometry x="5014.75" y="330" width="30" height="30" as="geometry" />
        </mxCell>
        <mxCell id="nL2CvM_2TXP2n6H3hURv-186" value="F4" style="verticalLabelPosition=bottom;verticalAlign=top;html=1;strokeWidth=4;shape=mxgraph.flowchart.on-page_reference;strokeColor=#000000;fillColor=#d5e8d4;fontSize=30;" parent="1" vertex="1">
          <mxGeometry x="5118" y="330" width="30" height="30" as="geometry" />
        </mxCell>
        <mxCell id="nL2CvM_2TXP2n6H3hURv-187" style="edgeStyle=orthogonalEdgeStyle;curved=1;rounded=0;html=1;exitX=1;exitY=0.5;exitPerimeter=0;entryX=0;entryY=0.5;entryPerimeter=0;endArrow=none;endFill=0;jettySize=auto;orthogonalLoop=1;strokeWidth=4;fontSize=30;" parent="1" source="nL2CvM_2TXP2n6H3hURv-188" target="nL2CvM_2TXP2n6H3hURv-194" edge="1">
          <mxGeometry relative="1" as="geometry" />
        </mxCell>
        <mxCell id="nL2CvM_2TXP2n6H3hURv-188" value="M1" style="verticalLabelPosition=bottom;verticalAlign=top;html=1;strokeWidth=4;shape=mxgraph.flowchart.on-page_reference;fillColor=#d5e8d4;strokeColor=#000000;fontSize=30;" parent="1" vertex="1">
          <mxGeometry x="4733" y="500" width="30" height="30" as="geometry" />
        </mxCell>
        <mxCell id="nL2CvM_2TXP2n6H3hURv-191" value="" style="edgeStyle=orthogonalEdgeStyle;rounded=0;html=1;jettySize=auto;orthogonalLoop=1;strokeWidth=4;endArrow=none;endFill=0;fontSize=30;" parent="1" target="nL2CvM_2TXP2n6H3hURv-188" edge="1">
          <mxGeometry x="4663" y="515" as="geometry">
            <mxPoint x="4620.75" y="515" as="sourcePoint" />
          </mxGeometry>
        </mxCell>
        <mxCell id="nL2CvM_2TXP2n6H3hURv-193" style="edgeStyle=orthogonalEdgeStyle;curved=1;rounded=0;html=1;exitX=1;exitY=0.5;exitPerimeter=0;endArrow=none;endFill=0;jettySize=auto;orthogonalLoop=1;strokeWidth=4;fontSize=30;" parent="1" source="nL2CvM_2TXP2n6H3hURv-194" target="nL2CvM_2TXP2n6H3hURv-196" edge="1">
          <mxGeometry relative="1" as="geometry" />
        </mxCell>
        <mxCell id="nL2CvM_2TXP2n6H3hURv-194" value="F1" style="verticalLabelPosition=bottom;verticalAlign=top;html=1;strokeWidth=4;shape=mxgraph.flowchart.on-page_reference;plain-purple;gradientColor=none;strokeColor=#000000;fillColor=#D5E8D4;fontSize=30;" parent="1" vertex="1">
          <mxGeometry x="4810.5" y="585" width="30" height="30" as="geometry" />
        </mxCell>
        <mxCell id="nL2CvM_2TXP2n6H3hURv-195" style="edgeStyle=orthogonalEdgeStyle;curved=1;rounded=0;html=1;exitX=1;exitY=0.5;exitPerimeter=0;entryX=0;entryY=0.5;entryPerimeter=0;endArrow=none;endFill=0;jettySize=auto;orthogonalLoop=1;strokeWidth=4;fontSize=30;fillColor=#d5e8d4;strokeColor=#000000;entryDx=0;entryDy=0;" parent="1" source="nL2CvM_2TXP2n6H3hURv-196" target="nL2CvM_2TXP2n6H3hURv-203" edge="1">
          <mxGeometry relative="1" as="geometry">
            <mxPoint x="5020.5" y="600" as="targetPoint" />
          </mxGeometry>
        </mxCell>
        <mxCell id="nL2CvM_2TXP2n6H3hURv-196" value="F2" style="verticalLabelPosition=bottom;verticalAlign=top;html=1;strokeWidth=4;shape=mxgraph.flowchart.on-page_reference;strokeColor=#000000;fillColor=#d5e8d4;fontSize=30;" parent="1" vertex="1">
          <mxGeometry x="4967" y="585" width="30" height="30" as="geometry" />
        </mxCell>
        <mxCell id="nL2CvM_2TXP2n6H3hURv-203" value="F4^" style="verticalLabelPosition=bottom;verticalAlign=top;html=1;strokeWidth=4;shape=mxgraph.flowchart.on-page_reference;strokeColor=#000000;fillColor=#d5e8d4;fontSize=30;" parent="1" vertex="1">
          <mxGeometry x="5123.75" y="585" width="30" height="30" as="geometry" />
        </mxCell>
        <mxCell id="nL2CvM_2TXP2n6H3hURv-204" value="" style="shape=flexArrow;endArrow=classic;html=1;rounded=0;fontSize=30;" parent="1" edge="1">
          <mxGeometry width="50" height="50" relative="1" as="geometry">
            <mxPoint x="4965" y="406" as="sourcePoint" />
            <mxPoint x="4965" y="481" as="targetPoint" />
          </mxGeometry>
        </mxCell>
        <mxCell id="nL2CvM_2TXP2n6H3hURv-205" style="edgeStyle=orthogonalEdgeStyle;curved=1;rounded=0;html=1;exitX=0.986;exitY=0.578;exitPerimeter=0;entryX=0;entryY=0.5;entryPerimeter=0;endArrow=none;endFill=0;jettySize=auto;orthogonalLoop=1;strokeWidth=4;fontSize=30;exitDx=0;exitDy=0;" parent="1" source="nL2CvM_2TXP2n6H3hURv-241" target="nL2CvM_2TXP2n6H3hURv-212" edge="1">
          <mxGeometry relative="1" as="geometry" />
        </mxCell>
        <mxCell id="nL2CvM_2TXP2n6H3hURv-242" value="" style="edgeStyle=orthogonalEdgeStyle;rounded=0;orthogonalLoop=1;jettySize=auto;html=1;endArrow=none;endFill=0;strokeWidth=4;fontSize=30;" parent="1" source="nL2CvM_2TXP2n6H3hURv-206" target="nL2CvM_2TXP2n6H3hURv-241" edge="1">
          <mxGeometry relative="1" as="geometry" />
        </mxCell>
        <mxCell id="nL2CvM_2TXP2n6H3hURv-206" value="M1" style="verticalLabelPosition=bottom;verticalAlign=top;html=1;strokeWidth=4;shape=mxgraph.flowchart.on-page_reference;fillColor=#d5e8d4;strokeColor=#000000;fontSize=30;" parent="1" vertex="1">
          <mxGeometry x="5800.25" y="254" width="29.75" height="30" as="geometry" />
        </mxCell>
        <mxCell id="nL2CvM_2TXP2n6H3hURv-208" value="M3" style="verticalLabelPosition=bottom;verticalAlign=top;html=1;strokeWidth=4;shape=mxgraph.flowchart.on-page_reference;plain-blue;gradientColor=none;strokeColor=#33001A;fillColor=#B5E3FE;fontSize=30;" parent="1" vertex="1">
          <mxGeometry x="6265.5" y="254" width="30" height="30" as="geometry" />
        </mxCell>
        <mxCell id="nL2CvM_2TXP2n6H3hURv-209" value="" style="edgeStyle=orthogonalEdgeStyle;rounded=0;html=1;jettySize=auto;orthogonalLoop=1;strokeWidth=4;endArrow=none;endFill=0;fontSize=30;" parent="1" target="nL2CvM_2TXP2n6H3hURv-206" edge="1">
          <mxGeometry x="5730.25" y="269" as="geometry">
            <mxPoint x="5688" y="269" as="sourcePoint" />
          </mxGeometry>
        </mxCell>
        <mxCell id="nL2CvM_2TXP2n6H3hURv-212" value="F1" style="verticalLabelPosition=bottom;verticalAlign=top;html=1;strokeWidth=4;shape=mxgraph.flowchart.on-page_reference;plain-purple;gradientColor=none;strokeColor=#000000;fillColor=#D5E8D4;fontSize=30;" parent="1" vertex="1">
          <mxGeometry x="6005" y="339" width="30" height="30" as="geometry" />
        </mxCell>
        <mxCell id="nL2CvM_2TXP2n6H3hURv-213" style="edgeStyle=orthogonalEdgeStyle;curved=1;rounded=0;html=1;exitX=1;exitY=0.5;exitPerimeter=0;entryX=0;entryY=0.5;entryPerimeter=0;endArrow=none;endFill=0;jettySize=auto;orthogonalLoop=1;strokeWidth=4;fontSize=30;exitDx=0;exitDy=0;" parent="1" source="nL2CvM_2TXP2n6H3hURv-212" target="nL2CvM_2TXP2n6H3hURv-216" edge="1">
          <mxGeometry relative="1" as="geometry">
            <mxPoint x="6014.75" y="354" as="sourcePoint" />
          </mxGeometry>
        </mxCell>
        <mxCell id="nL2CvM_2TXP2n6H3hURv-215" value="" style="edgeStyle=orthogonalEdgeStyle;rounded=0;orthogonalLoop=1;jettySize=auto;html=1;strokeWidth=4;endArrow=none;endFill=0;fontSize=30;" parent="1" source="nL2CvM_2TXP2n6H3hURv-216" target="nL2CvM_2TXP2n6H3hURv-221" edge="1">
          <mxGeometry relative="1" as="geometry">
            <mxPoint x="6234.75" y="354" as="targetPoint" />
          </mxGeometry>
        </mxCell>
        <mxCell id="nL2CvM_2TXP2n6H3hURv-216" value="F2" style="verticalLabelPosition=bottom;verticalAlign=top;html=1;strokeWidth=4;shape=mxgraph.flowchart.on-page_reference;strokeColor=#000000;fillColor=#d5e8d4;fontSize=30;" parent="1" vertex="1">
          <mxGeometry x="6100" y="339" width="30" height="30" as="geometry" />
        </mxCell>
        <mxCell id="nL2CvM_2TXP2n6H3hURv-220" style="edgeStyle=orthogonalEdgeStyle;curved=1;rounded=0;orthogonalLoop=1;jettySize=auto;html=1;entryX=0;entryY=0.5;entryDx=0;entryDy=0;entryPerimeter=0;endArrow=none;endFill=0;strokeWidth=4;fontFamily=Courier New;fontColor=#009900;fontSize=30;dashed=1;" parent="1" source="nL2CvM_2TXP2n6H3hURv-221" target="nL2CvM_2TXP2n6H3hURv-208" edge="1">
          <mxGeometry relative="1" as="geometry" />
        </mxCell>
        <mxCell id="nL2CvM_2TXP2n6H3hURv-221" value="F3" style="verticalLabelPosition=bottom;verticalAlign=top;html=1;strokeWidth=4;shape=mxgraph.flowchart.on-page_reference;plain-purple;gradientColor=none;strokeColor=#000000;fillColor=#D5E8D4;fontSize=30;" parent="1" vertex="1">
          <mxGeometry x="6191" y="339" width="30" height="30" as="geometry" />
        </mxCell>
        <mxCell id="nL2CvM_2TXP2n6H3hURv-239" value="" style="shape=flexArrow;endArrow=classic;html=1;rounded=0;fontSize=30;" parent="1" edge="1">
          <mxGeometry width="50" height="50" relative="1" as="geometry">
            <mxPoint x="6038" y="415" as="sourcePoint" />
            <mxPoint x="6038" y="490" as="targetPoint" />
          </mxGeometry>
        </mxCell>
        <mxCell id="UpaYWz6Gppfl74PbtKEu-2" style="edgeStyle=orthogonalEdgeStyle;rounded=0;orthogonalLoop=1;jettySize=auto;html=1;entryX=0;entryY=0.5;entryDx=0;entryDy=0;entryPerimeter=0;strokeWidth=4;dashed=1;endArrow=none;endFill=0;" edge="1" parent="1" source="nL2CvM_2TXP2n6H3hURv-241" target="nL2CvM_2TXP2n6H3hURv-208">
          <mxGeometry relative="1" as="geometry" />
        </mxCell>
        <mxCell id="nL2CvM_2TXP2n6H3hURv-241" value="M2" style="verticalLabelPosition=bottom;verticalAlign=top;html=1;strokeWidth=4;shape=mxgraph.flowchart.on-page_reference;fillColor=#d5e8d4;strokeColor=#000000;fontSize=30;" parent="1" vertex="1">
          <mxGeometry x="5910" y="254" width="29.75" height="30" as="geometry" />
        </mxCell>
        <mxCell id="nL2CvM_2TXP2n6H3hURv-260" style="edgeStyle=orthogonalEdgeStyle;curved=1;rounded=0;html=1;exitX=0.986;exitY=0.578;exitPerimeter=0;entryX=0;entryY=0.5;entryPerimeter=0;endArrow=none;endFill=0;jettySize=auto;orthogonalLoop=1;strokeWidth=4;fontSize=30;exitDx=0;exitDy=0;" parent="1" source="nL2CvM_2TXP2n6H3hURv-276" target="nL2CvM_2TXP2n6H3hURv-267" edge="1">
          <mxGeometry relative="1" as="geometry" />
        </mxCell>
        <mxCell id="nL2CvM_2TXP2n6H3hURv-261" value="" style="edgeStyle=orthogonalEdgeStyle;rounded=0;orthogonalLoop=1;jettySize=auto;html=1;endArrow=none;endFill=0;strokeWidth=4;fontSize=30;" parent="1" source="nL2CvM_2TXP2n6H3hURv-262" target="nL2CvM_2TXP2n6H3hURv-276" edge="1">
          <mxGeometry relative="1" as="geometry" />
        </mxCell>
        <mxCell id="nL2CvM_2TXP2n6H3hURv-262" value="M1" style="verticalLabelPosition=bottom;verticalAlign=top;html=1;strokeWidth=4;shape=mxgraph.flowchart.on-page_reference;fillColor=#d5e8d4;strokeColor=#000000;fontSize=30;" parent="1" vertex="1">
          <mxGeometry x="5799.25" y="503" width="29.75" height="30" as="geometry" />
        </mxCell>
        <mxCell id="nL2CvM_2TXP2n6H3hURv-264" value="M3" style="verticalLabelPosition=bottom;verticalAlign=top;html=1;strokeWidth=4;shape=mxgraph.flowchart.on-page_reference;plain-blue;gradientColor=none;strokeColor=#33001A;fillColor=#B5E3FE;fontSize=30;" parent="1" vertex="1">
          <mxGeometry x="6086" y="503" width="30" height="30" as="geometry" />
        </mxCell>
        <mxCell id="nL2CvM_2TXP2n6H3hURv-265" value="" style="edgeStyle=orthogonalEdgeStyle;rounded=0;html=1;jettySize=auto;orthogonalLoop=1;strokeWidth=4;endArrow=none;endFill=0;fontSize=30;" parent="1" target="nL2CvM_2TXP2n6H3hURv-262" edge="1">
          <mxGeometry x="5729.25" y="518" as="geometry">
            <mxPoint x="5687" y="518" as="sourcePoint" />
          </mxGeometry>
        </mxCell>
        <mxCell id="nL2CvM_2TXP2n6H3hURv-267" value="F4^" style="verticalLabelPosition=bottom;verticalAlign=top;html=1;strokeWidth=4;shape=mxgraph.flowchart.on-page_reference;strokeColor=#000000;fillColor=#ffe6cc;fontSize=30;" parent="1" vertex="1">
          <mxGeometry x="6004" y="588" width="30" height="30" as="geometry" />
        </mxCell>
        <mxCell id="nL2CvM_2TXP2n6H3hURv-274" style="edgeStyle=orthogonalEdgeStyle;curved=1;rounded=0;orthogonalLoop=1;jettySize=auto;html=1;entryX=0;entryY=0.5;entryDx=0;entryDy=0;entryPerimeter=0;endArrow=none;endFill=0;strokeWidth=4;fontFamily=Courier New;fontColor=#009900;fontSize=30;exitX=1;exitY=0.5;exitDx=0;exitDy=0;exitPerimeter=0;dashed=1;" parent="1" source="nL2CvM_2TXP2n6H3hURv-267" target="nL2CvM_2TXP2n6H3hURv-264" edge="1">
          <mxGeometry relative="1" as="geometry">
            <mxPoint x="6220" y="603" as="sourcePoint" />
            <Array as="points">
              <mxPoint x="6060" y="603" />
              <mxPoint x="6060" y="518" />
            </Array>
          </mxGeometry>
        </mxCell>
        <mxCell id="UpaYWz6Gppfl74PbtKEu-1" style="edgeStyle=orthogonalEdgeStyle;rounded=0;orthogonalLoop=1;jettySize=auto;html=1;strokeWidth=4;endArrow=none;endFill=0;dashed=1;" edge="1" parent="1" source="nL2CvM_2TXP2n6H3hURv-276" target="nL2CvM_2TXP2n6H3hURv-264">
          <mxGeometry relative="1" as="geometry" />
        </mxCell>
        <mxCell id="nL2CvM_2TXP2n6H3hURv-276" value="M2" style="verticalLabelPosition=bottom;verticalAlign=top;html=1;strokeWidth=4;shape=mxgraph.flowchart.on-page_reference;fillColor=#d5e8d4;strokeColor=#000000;fontSize=30;" parent="1" vertex="1">
          <mxGeometry x="5909" y="503" width="29.75" height="30" as="geometry" />
        </mxCell>
        <mxCell id="nL2CvM_2TXP2n6H3hURv-277" value="" style="edgeStyle=orthogonalEdgeStyle;rounded=0;html=1;jettySize=auto;orthogonalLoop=1;plain-blue;endArrow=none;endFill=0;strokeWidth=4;strokeColor=#000000;entryX=0;entryY=0.5;entryDx=0;entryDy=0;entryPerimeter=0;fontSize=30;" parent="1" source="nL2CvM_2TXP2n6H3hURv-279" target="nL2CvM_2TXP2n6H3hURv-301" edge="1">
          <mxGeometry x="6964.25" y="278" as="geometry">
            <mxPoint x="7114.25" y="278" as="targetPoint" />
          </mxGeometry>
        </mxCell>
        <mxCell id="nL2CvM_2TXP2n6H3hURv-278" style="edgeStyle=orthogonalEdgeStyle;curved=1;rounded=0;html=1;exitX=1;exitY=0.5;exitPerimeter=0;entryX=0;entryY=0.5;entryPerimeter=0;endArrow=none;endFill=0;jettySize=auto;orthogonalLoop=1;strokeWidth=4;fontSize=30;" parent="1" source="nL2CvM_2TXP2n6H3hURv-279" target="nL2CvM_2TXP2n6H3hURv-287" edge="1">
          <mxGeometry relative="1" as="geometry" />
        </mxCell>
        <mxCell id="nL2CvM_2TXP2n6H3hURv-279" value="M1" style="verticalLabelPosition=bottom;verticalAlign=top;html=1;strokeWidth=4;shape=mxgraph.flowchart.on-page_reference;fillColor=#d5e8d4;strokeColor=#000000;fontSize=30;" parent="1" vertex="1">
          <mxGeometry x="6934.25" y="263" width="30" height="30" as="geometry" />
        </mxCell>
        <mxCell id="nL2CvM_2TXP2n6H3hURv-280" value="" style="edgeStyle=orthogonalEdgeStyle;curved=1;rounded=0;orthogonalLoop=1;jettySize=auto;html=1;endArrow=none;endFill=0;strokeWidth=4;entryX=0;entryY=0.5;entryDx=0;entryDy=0;entryPerimeter=0;fontSize=30;dashed=1;" parent="1" source="nL2CvM_2TXP2n6H3hURv-282" target="nL2CvM_2TXP2n6H3hURv-283" edge="1">
          <mxGeometry relative="1" as="geometry">
            <mxPoint x="7406.5" y="278" as="targetPoint" />
          </mxGeometry>
        </mxCell>
        <mxCell id="nL2CvM_2TXP2n6H3hURv-281" style="edgeStyle=orthogonalEdgeStyle;curved=1;rounded=0;orthogonalLoop=1;jettySize=auto;html=1;exitX=1;exitY=0.5;exitDx=0;exitDy=0;exitPerimeter=0;entryX=0;entryY=0.5;entryDx=0;entryDy=0;entryPerimeter=0;endArrow=none;endFill=0;strokeWidth=4;fontFamily=Courier New;fontColor=#009900;fontSize=30;" parent="1" source="nL2CvM_2TXP2n6H3hURv-282" target="nL2CvM_2TXP2n6H3hURv-296" edge="1">
          <mxGeometry relative="1" as="geometry" />
        </mxCell>
        <mxCell id="nL2CvM_2TXP2n6H3hURv-282" value="M3" style="verticalLabelPosition=bottom;verticalAlign=top;html=1;strokeWidth=4;shape=mxgraph.flowchart.on-page_reference;strokeColor=#000000;fillColor=#d5e8d4;fontSize=30;" parent="1" vertex="1">
          <mxGeometry x="7294.25" y="263" width="30" height="30" as="geometry" />
        </mxCell>
        <mxCell id="nL2CvM_2TXP2n6H3hURv-283" value="M4" style="verticalLabelPosition=bottom;verticalAlign=top;html=1;strokeWidth=4;shape=mxgraph.flowchart.on-page_reference;plain-blue;gradientColor=none;strokeColor=#33001A;fillColor=#B5E3FE;fontSize=30;" parent="1" vertex="1">
          <mxGeometry x="7533.25" y="263" width="30" height="30" as="geometry" />
        </mxCell>
        <mxCell id="nL2CvM_2TXP2n6H3hURv-284" value="" style="edgeStyle=orthogonalEdgeStyle;rounded=0;html=1;jettySize=auto;orthogonalLoop=1;strokeWidth=4;endArrow=none;endFill=0;" parent="1" target="nL2CvM_2TXP2n6H3hURv-279" edge="1">
          <mxGeometry x="6864.25" y="278" as="geometry">
            <mxPoint x="6822" y="278" as="sourcePoint" />
          </mxGeometry>
        </mxCell>
        <mxCell id="nL2CvM_2TXP2n6H3hURv-286" style="edgeStyle=orthogonalEdgeStyle;curved=1;rounded=0;html=1;exitX=1;exitY=0.5;exitPerimeter=0;endArrow=none;endFill=0;jettySize=auto;orthogonalLoop=1;strokeWidth=4;fontSize=30;" parent="1" source="nL2CvM_2TXP2n6H3hURv-287" target="nL2CvM_2TXP2n6H3hURv-289" edge="1">
          <mxGeometry relative="1" as="geometry" />
        </mxCell>
        <mxCell id="nL2CvM_2TXP2n6H3hURv-287" value="F1" style="verticalLabelPosition=bottom;verticalAlign=top;html=1;strokeWidth=4;shape=mxgraph.flowchart.on-page_reference;plain-purple;gradientColor=none;strokeColor=#000000;fillColor=#D5E8D4;fontSize=30;" parent="1" vertex="1">
          <mxGeometry x="7011.75" y="348" width="30" height="30" as="geometry" />
        </mxCell>
        <mxCell id="nL2CvM_2TXP2n6H3hURv-288" style="edgeStyle=orthogonalEdgeStyle;curved=1;rounded=0;html=1;exitX=1;exitY=0.5;exitPerimeter=0;entryX=0;entryY=0.5;entryPerimeter=0;endArrow=none;endFill=0;jettySize=auto;orthogonalLoop=1;strokeWidth=4;fontSize=30;" parent="1" source="nL2CvM_2TXP2n6H3hURv-289" target="nL2CvM_2TXP2n6H3hURv-291" edge="1">
          <mxGeometry relative="1" as="geometry" />
        </mxCell>
        <mxCell id="nL2CvM_2TXP2n6H3hURv-289" value="F2" style="verticalLabelPosition=bottom;verticalAlign=top;html=1;strokeWidth=4;shape=mxgraph.flowchart.on-page_reference;plain-purple;gradientColor=none;strokeColor=#000000;fillColor=#D5E8D4;fontSize=30;" parent="1" vertex="1">
          <mxGeometry x="7118.75" y="348" width="30" height="30" as="geometry" />
        </mxCell>
        <mxCell id="nL2CvM_2TXP2n6H3hURv-290" value="" style="edgeStyle=orthogonalEdgeStyle;rounded=0;orthogonalLoop=1;jettySize=auto;html=1;strokeWidth=4;endArrow=none;endFill=0;fontSize=30;" parent="1" source="nL2CvM_2TXP2n6H3hURv-291" target="nL2CvM_2TXP2n6H3hURv-296" edge="1">
          <mxGeometry relative="1" as="geometry" />
        </mxCell>
        <mxCell id="nL2CvM_2TXP2n6H3hURv-291" value="F3" style="verticalLabelPosition=bottom;verticalAlign=top;html=1;strokeWidth=4;shape=mxgraph.flowchart.on-page_reference;plain-purple;gradientColor=none;strokeColor=#000000;fillColor=#D5E8D4;fontSize=30;" parent="1" vertex="1">
          <mxGeometry x="7221.75" y="348" width="30" height="30" as="geometry" />
        </mxCell>
        <mxCell id="nL2CvM_2TXP2n6H3hURv-295" value="" style="edgeStyle=orthogonalEdgeStyle;curved=1;rounded=0;orthogonalLoop=1;jettySize=auto;html=1;endArrow=none;endFill=0;strokeWidth=4;fontFamily=Courier New;fontColor=#009900;fontSize=30;" parent="1" source="nL2CvM_2TXP2n6H3hURv-296" target="nL2CvM_2TXP2n6H3hURv-298" edge="1">
          <mxGeometry relative="1" as="geometry" />
        </mxCell>
        <mxCell id="nL2CvM_2TXP2n6H3hURv-296" value="F4" style="verticalLabelPosition=bottom;verticalAlign=top;html=1;strokeWidth=4;shape=mxgraph.flowchart.on-page_reference;strokeColor=#000000;fillColor=#B5E3FE;fontSize=30;" parent="1" vertex="1">
          <mxGeometry x="7368.75" y="348" width="30" height="30" as="geometry" />
        </mxCell>
        <mxCell id="nL2CvM_2TXP2n6H3hURv-297" style="edgeStyle=orthogonalEdgeStyle;curved=1;rounded=0;orthogonalLoop=1;jettySize=auto;html=1;entryX=0;entryY=0.5;entryDx=0;entryDy=0;entryPerimeter=0;endArrow=none;endFill=0;strokeWidth=4;fontFamily=Courier New;fontColor=#009900;fontSize=30;dashed=1;" parent="1" source="nL2CvM_2TXP2n6H3hURv-298" target="nL2CvM_2TXP2n6H3hURv-283" edge="1">
          <mxGeometry relative="1" as="geometry" />
        </mxCell>
        <mxCell id="nL2CvM_2TXP2n6H3hURv-298" value="F5" style="verticalLabelPosition=bottom;verticalAlign=top;html=1;strokeWidth=4;shape=mxgraph.flowchart.on-page_reference;plain-purple;gradientColor=none;strokeColor=#000000;fillColor=#D5E8D4;fontSize=30;" parent="1" vertex="1">
          <mxGeometry x="7458.75" y="348" width="30" height="30" as="geometry" />
        </mxCell>
        <mxCell id="nL2CvM_2TXP2n6H3hURv-300" value="" style="edgeStyle=orthogonalEdgeStyle;rounded=0;orthogonalLoop=1;jettySize=auto;html=1;fontSize=30;endArrow=none;endFill=0;strokeWidth=4;entryX=0;entryY=0.5;entryDx=0;entryDy=0;entryPerimeter=0;" parent="1" source="nL2CvM_2TXP2n6H3hURv-301" target="nL2CvM_2TXP2n6H3hURv-282" edge="1">
          <mxGeometry relative="1" as="geometry">
            <mxPoint x="7232.25" y="278" as="targetPoint" />
          </mxGeometry>
        </mxCell>
        <mxCell id="nL2CvM_2TXP2n6H3hURv-301" value="M2" style="verticalLabelPosition=bottom;verticalAlign=top;html=1;strokeWidth=4;shape=mxgraph.flowchart.on-page_reference;strokeColor=#000000;fillColor=#d5e8d4;fontSize=30;" parent="1" vertex="1">
          <mxGeometry x="7118.75" y="263" width="30" height="30" as="geometry" />
        </mxCell>
        <mxCell id="nL2CvM_2TXP2n6H3hURv-302" value="" style="shape=flexArrow;endArrow=classic;html=1;rounded=0;fontSize=30;" parent="1" edge="1">
          <mxGeometry width="50" height="50" relative="1" as="geometry">
            <mxPoint x="7194" y="399" as="sourcePoint" />
            <mxPoint x="7194" y="474" as="targetPoint" />
          </mxGeometry>
        </mxCell>
        <mxCell id="nL2CvM_2TXP2n6H3hURv-303" value="" style="edgeStyle=orthogonalEdgeStyle;rounded=0;html=1;jettySize=auto;orthogonalLoop=1;plain-blue;endArrow=none;endFill=0;strokeWidth=4;strokeColor=#000000;entryX=0;entryY=0.5;entryDx=0;entryDy=0;entryPerimeter=0;fontSize=30;" parent="1" source="nL2CvM_2TXP2n6H3hURv-305" target="nL2CvM_2TXP2n6H3hURv-326" edge="1">
          <mxGeometry x="6964.25" y="507" as="geometry">
            <mxPoint x="7114.25" y="507" as="targetPoint" />
          </mxGeometry>
        </mxCell>
        <mxCell id="nL2CvM_2TXP2n6H3hURv-304" style="edgeStyle=orthogonalEdgeStyle;curved=1;rounded=0;html=1;entryX=0;entryY=0.5;entryPerimeter=0;endArrow=none;endFill=0;jettySize=auto;orthogonalLoop=1;strokeWidth=4;fontSize=30;" parent="1" source="nL2CvM_2TXP2n6H3hURv-308" target="nL2CvM_2TXP2n6H3hURv-313" edge="1">
          <mxGeometry relative="1" as="geometry" />
        </mxCell>
        <mxCell id="nL2CvM_2TXP2n6H3hURv-305" value="M1" style="verticalLabelPosition=bottom;verticalAlign=top;html=1;strokeWidth=4;shape=mxgraph.flowchart.on-page_reference;fillColor=#d5e8d4;strokeColor=#000000;fontSize=30;" parent="1" vertex="1">
          <mxGeometry x="6934.25" y="492" width="30" height="30" as="geometry" />
        </mxCell>
        <mxCell id="nL2CvM_2TXP2n6H3hURv-306" value="" style="edgeStyle=orthogonalEdgeStyle;curved=1;rounded=0;orthogonalLoop=1;jettySize=auto;html=1;endArrow=none;endFill=0;strokeWidth=4;entryX=0;entryY=0.5;entryDx=0;entryDy=0;entryPerimeter=0;fontSize=30;dashed=1;" parent="1" source="nL2CvM_2TXP2n6H3hURv-308" target="nL2CvM_2TXP2n6H3hURv-309" edge="1">
          <mxGeometry relative="1" as="geometry">
            <mxPoint x="7406.5" y="507" as="targetPoint" />
          </mxGeometry>
        </mxCell>
        <mxCell id="nL2CvM_2TXP2n6H3hURv-308" value="M3" style="verticalLabelPosition=bottom;verticalAlign=top;html=1;strokeWidth=4;shape=mxgraph.flowchart.on-page_reference;strokeColor=#000000;fillColor=#d5e8d4;fontSize=30;" parent="1" vertex="1">
          <mxGeometry x="7118.75" y="492" width="30" height="30" as="geometry" />
        </mxCell>
        <mxCell id="nL2CvM_2TXP2n6H3hURv-309" value="M4" style="verticalLabelPosition=bottom;verticalAlign=top;html=1;strokeWidth=4;shape=mxgraph.flowchart.on-page_reference;plain-blue;gradientColor=none;strokeColor=#33001A;fillColor=#B5E3FE;fontSize=30;" parent="1" vertex="1">
          <mxGeometry x="7533.25" y="492" width="30" height="30" as="geometry" />
        </mxCell>
        <mxCell id="nL2CvM_2TXP2n6H3hURv-310" value="" style="edgeStyle=orthogonalEdgeStyle;rounded=0;html=1;jettySize=auto;orthogonalLoop=1;strokeWidth=4;endArrow=none;endFill=0;" parent="1" target="nL2CvM_2TXP2n6H3hURv-305" edge="1">
          <mxGeometry x="6864.25" y="507" as="geometry">
            <mxPoint x="6822" y="507" as="sourcePoint" />
          </mxGeometry>
        </mxCell>
        <mxCell id="nL2CvM_2TXP2n6H3hURv-312" style="edgeStyle=orthogonalEdgeStyle;curved=1;rounded=0;html=1;exitX=1;exitY=0.5;exitPerimeter=0;endArrow=none;endFill=0;jettySize=auto;orthogonalLoop=1;strokeWidth=4;fontSize=30;" parent="1" source="nL2CvM_2TXP2n6H3hURv-313" target="nL2CvM_2TXP2n6H3hURv-315" edge="1">
          <mxGeometry relative="1" as="geometry" />
        </mxCell>
        <mxCell id="nL2CvM_2TXP2n6H3hURv-313" value="F1^" style="verticalLabelPosition=bottom;verticalAlign=top;html=1;strokeWidth=4;shape=mxgraph.flowchart.on-page_reference;plain-purple;gradientColor=none;strokeColor=#000000;fillColor=#D5E8D4;fontSize=30;" parent="1" vertex="1">
          <mxGeometry x="7205" y="577" width="30" height="30" as="geometry" />
        </mxCell>
        <mxCell id="nL2CvM_2TXP2n6H3hURv-314" style="edgeStyle=orthogonalEdgeStyle;curved=1;rounded=0;html=1;exitX=1;exitY=0.5;exitPerimeter=0;entryX=0;entryY=0.5;entryPerimeter=0;endArrow=none;endFill=0;jettySize=auto;orthogonalLoop=1;strokeWidth=4;fontSize=30;" parent="1" source="nL2CvM_2TXP2n6H3hURv-315" target="nL2CvM_2TXP2n6H3hURv-317" edge="1">
          <mxGeometry relative="1" as="geometry" />
        </mxCell>
        <mxCell id="nL2CvM_2TXP2n6H3hURv-315" value="F2^" style="verticalLabelPosition=bottom;verticalAlign=top;html=1;strokeWidth=4;shape=mxgraph.flowchart.on-page_reference;plain-purple;gradientColor=none;strokeColor=#000000;fillColor=#D5E8D4;fontSize=30;" parent="1" vertex="1">
          <mxGeometry x="7292" y="577" width="30" height="30" as="geometry" />
        </mxCell>
        <mxCell id="nL2CvM_2TXP2n6H3hURv-316" value="" style="edgeStyle=orthogonalEdgeStyle;rounded=0;orthogonalLoop=1;jettySize=auto;html=1;strokeWidth=4;endArrow=none;endFill=0;fontSize=30;entryX=0;entryY=0.5;entryDx=0;entryDy=0;entryPerimeter=0;" parent="1" source="nL2CvM_2TXP2n6H3hURv-317" target="nL2CvM_2TXP2n6H3hURv-324" edge="1">
          <mxGeometry relative="1" as="geometry">
            <mxPoint x="7368.75" y="592" as="targetPoint" />
          </mxGeometry>
        </mxCell>
        <mxCell id="nL2CvM_2TXP2n6H3hURv-317" value="F3^" style="verticalLabelPosition=bottom;verticalAlign=top;html=1;strokeWidth=4;shape=mxgraph.flowchart.on-page_reference;plain-purple;gradientColor=none;strokeColor=#000000;fillColor=#D5E8D4;fontSize=30;" parent="1" vertex="1">
          <mxGeometry x="7375" y="577" width="30" height="30" as="geometry" />
        </mxCell>
        <mxCell id="nL2CvM_2TXP2n6H3hURv-323" style="edgeStyle=orthogonalEdgeStyle;curved=1;rounded=0;orthogonalLoop=1;jettySize=auto;html=1;entryX=0;entryY=0.5;entryDx=0;entryDy=0;entryPerimeter=0;endArrow=none;endFill=0;strokeWidth=4;fontFamily=Courier New;fontColor=#009900;fontSize=30;dashed=1;" parent="1" source="nL2CvM_2TXP2n6H3hURv-324" target="nL2CvM_2TXP2n6H3hURv-309" edge="1">
          <mxGeometry relative="1" as="geometry" />
        </mxCell>
        <mxCell id="nL2CvM_2TXP2n6H3hURv-324" value="F5^" style="verticalLabelPosition=bottom;verticalAlign=top;html=1;strokeWidth=4;shape=mxgraph.flowchart.on-page_reference;plain-purple;gradientColor=none;strokeColor=#000000;fillColor=#D5E8D4;fontSize=30;" parent="1" vertex="1">
          <mxGeometry x="7458.75" y="577" width="30" height="30" as="geometry" />
        </mxCell>
        <mxCell id="nL2CvM_2TXP2n6H3hURv-325" value="" style="edgeStyle=orthogonalEdgeStyle;rounded=0;orthogonalLoop=1;jettySize=auto;html=1;fontSize=30;endArrow=none;endFill=0;strokeWidth=4;entryX=0;entryY=0.5;entryDx=0;entryDy=0;entryPerimeter=0;" parent="1" source="nL2CvM_2TXP2n6H3hURv-326" target="nL2CvM_2TXP2n6H3hURv-308" edge="1">
          <mxGeometry relative="1" as="geometry">
            <mxPoint x="7232.25" y="507" as="targetPoint" />
          </mxGeometry>
        </mxCell>
        <mxCell id="nL2CvM_2TXP2n6H3hURv-326" value="M2" style="verticalLabelPosition=bottom;verticalAlign=top;html=1;strokeWidth=4;shape=mxgraph.flowchart.on-page_reference;strokeColor=#000000;fillColor=#d5e8d4;fontSize=30;" parent="1" vertex="1">
          <mxGeometry x="7025" y="492" width="30" height="30" as="geometry" />
        </mxCell>
        <mxCell id="nL2CvM_2TXP2n6H3hURv-327" style="edgeStyle=orthogonalEdgeStyle;curved=1;rounded=0;html=1;exitX=1;exitY=0.5;exitPerimeter=0;entryX=0;entryY=0.5;entryPerimeter=0;endArrow=none;endFill=0;jettySize=auto;orthogonalLoop=1;strokeWidth=4;fontSize=30;" parent="1" source="nL2CvM_2TXP2n6H3hURv-328" target="nL2CvM_2TXP2n6H3hURv-332" edge="1">
          <mxGeometry relative="1" as="geometry" />
        </mxCell>
        <mxCell id="nL2CvM_2TXP2n6H3hURv-328" value="M1" style="verticalLabelPosition=bottom;verticalAlign=top;html=1;strokeWidth=4;shape=mxgraph.flowchart.on-page_reference;fillColor=#d5e8d4;strokeColor=#000000;fontSize=30;" parent="1" vertex="1">
          <mxGeometry x="8159.25" y="226" width="30" height="30" as="geometry" />
        </mxCell>
        <mxCell id="nL2CvM_2TXP2n6H3hURv-329" value="" style="edgeStyle=orthogonalEdgeStyle;rounded=0;html=1;jettySize=auto;orthogonalLoop=1;strokeWidth=4;endArrow=none;endFill=0;" parent="1" target="nL2CvM_2TXP2n6H3hURv-328" edge="1">
          <mxGeometry x="8089.25" y="241" as="geometry">
            <mxPoint x="8047" y="241" as="sourcePoint" />
          </mxGeometry>
        </mxCell>
        <mxCell id="nL2CvM_2TXP2n6H3hURv-331" style="edgeStyle=orthogonalEdgeStyle;curved=1;rounded=0;html=1;exitX=1;exitY=0.5;exitPerimeter=0;endArrow=none;endFill=0;jettySize=auto;orthogonalLoop=1;strokeWidth=4;fontSize=30;entryX=0;entryY=0.5;entryDx=0;entryDy=0;entryPerimeter=0;" parent="1" source="nL2CvM_2TXP2n6H3hURv-332" target="nL2CvM_2TXP2n6H3hURv-334" edge="1">
          <mxGeometry relative="1" as="geometry">
            <Array as="points">
              <mxPoint x="8340" y="240" />
              <mxPoint x="8340" y="326" />
            </Array>
          </mxGeometry>
        </mxCell>
        <mxCell id="nL2CvM_2TXP2n6H3hURv-332" value="M2" style="verticalLabelPosition=bottom;verticalAlign=top;html=1;strokeWidth=4;shape=mxgraph.flowchart.on-page_reference;plain-purple;gradientColor=none;strokeColor=#000000;fillColor=#D5E8D4;fontSize=30;" parent="1" vertex="1">
          <mxGeometry x="8270" y="226" width="30" height="30" as="geometry" />
        </mxCell>
        <mxCell id="nL2CvM_2TXP2n6H3hURv-333" style="edgeStyle=orthogonalEdgeStyle;curved=1;rounded=0;html=1;exitX=1;exitY=0.5;exitPerimeter=0;entryX=0;entryY=0.5;entryPerimeter=0;endArrow=none;endFill=0;jettySize=auto;orthogonalLoop=1;strokeWidth=4;fontSize=30;" parent="1" source="nL2CvM_2TXP2n6H3hURv-334" target="nL2CvM_2TXP2n6H3hURv-335" edge="1">
          <mxGeometry relative="1" as="geometry" />
        </mxCell>
        <mxCell id="nL2CvM_2TXP2n6H3hURv-334" value="F1" style="verticalLabelPosition=bottom;verticalAlign=top;html=1;strokeWidth=4;shape=mxgraph.flowchart.on-page_reference;plain-purple;gradientColor=none;strokeColor=#000000;fillColor=#D5E8D4;fontSize=30;" parent="1" vertex="1">
          <mxGeometry x="8380" y="311" width="30" height="30" as="geometry" />
        </mxCell>
        <mxCell id="nL2CvM_2TXP2n6H3hURv-335" value="F2" style="verticalLabelPosition=bottom;verticalAlign=top;html=1;strokeWidth=4;shape=mxgraph.flowchart.on-page_reference;plain-purple;gradientColor=none;strokeColor=#000000;fillColor=#D5E8D4;fontSize=30;" parent="1" vertex="1">
          <mxGeometry x="8480" y="311" width="30" height="30" as="geometry" />
        </mxCell>
        <mxCell id="nL2CvM_2TXP2n6H3hURv-339" style="edgeStyle=orthogonalEdgeStyle;curved=1;rounded=0;html=1;exitX=1;exitY=0.5;exitPerimeter=0;entryX=0;entryY=0.5;entryPerimeter=0;endArrow=none;endFill=0;jettySize=auto;orthogonalLoop=1;strokeWidth=4;fontSize=30;" parent="1" source="nL2CvM_2TXP2n6H3hURv-340" target="nL2CvM_2TXP2n6H3hURv-344" edge="1">
          <mxGeometry relative="1" as="geometry" />
        </mxCell>
        <mxCell id="nL2CvM_2TXP2n6H3hURv-340" value="M1" style="verticalLabelPosition=bottom;verticalAlign=top;html=1;strokeWidth=4;shape=mxgraph.flowchart.on-page_reference;fillColor=#d5e8d4;strokeColor=#000000;fontSize=30;" parent="1" vertex="1">
          <mxGeometry x="8163" y="466" width="30" height="30" as="geometry" />
        </mxCell>
        <mxCell id="nL2CvM_2TXP2n6H3hURv-341" value="" style="edgeStyle=orthogonalEdgeStyle;rounded=0;html=1;jettySize=auto;orthogonalLoop=1;strokeWidth=4;endArrow=none;endFill=0;" parent="1" target="nL2CvM_2TXP2n6H3hURv-340" edge="1">
          <mxGeometry x="8093" y="481" as="geometry">
            <mxPoint x="8050.75" y="481" as="sourcePoint" />
          </mxGeometry>
        </mxCell>
        <mxCell id="nL2CvM_2TXP2n6H3hURv-352" value="" style="edgeStyle=orthogonalEdgeStyle;rounded=0;orthogonalLoop=1;jettySize=auto;html=1;strokeWidth=4;endArrow=none;endFill=0;fontSize=30;" parent="1" source="nL2CvM_2TXP2n6H3hURv-344" target="nL2CvM_2TXP2n6H3hURv-346" edge="1">
          <mxGeometry relative="1" as="geometry" />
        </mxCell>
        <mxCell id="nL2CvM_2TXP2n6H3hURv-344" value="M2" style="verticalLabelPosition=bottom;verticalAlign=top;html=1;strokeWidth=4;shape=mxgraph.flowchart.on-page_reference;plain-purple;gradientColor=none;strokeColor=#000000;fillColor=#D5E8D4;fontSize=30;" parent="1" vertex="1">
          <mxGeometry x="8273.75" y="466" width="30" height="30" as="geometry" />
        </mxCell>
        <mxCell id="nL2CvM_2TXP2n6H3hURv-345" style="edgeStyle=orthogonalEdgeStyle;curved=1;rounded=0;html=1;exitX=1;exitY=0.5;exitPerimeter=0;entryX=0;entryY=0.5;entryPerimeter=0;endArrow=none;endFill=0;jettySize=auto;orthogonalLoop=1;strokeWidth=4;fontSize=30;" parent="1" source="nL2CvM_2TXP2n6H3hURv-346" target="nL2CvM_2TXP2n6H3hURv-347" edge="1">
          <mxGeometry relative="1" as="geometry" />
        </mxCell>
        <mxCell id="nL2CvM_2TXP2n6H3hURv-346" value="M3" style="verticalLabelPosition=bottom;verticalAlign=top;html=1;strokeWidth=4;shape=mxgraph.flowchart.on-page_reference;plain-purple;gradientColor=none;strokeColor=#000000;fillColor=#D5E8D4;fontSize=30;" parent="1" vertex="1">
          <mxGeometry x="8380" y="466" width="30" height="30" as="geometry" />
        </mxCell>
        <mxCell id="nL2CvM_2TXP2n6H3hURv-347" value="M4" style="verticalLabelPosition=bottom;verticalAlign=top;html=1;strokeWidth=4;shape=mxgraph.flowchart.on-page_reference;strokeColor=#000000;fillColor=#d5e8d4;fontSize=30;" parent="1" vertex="1">
          <mxGeometry x="8483" y="466" width="30" height="30" as="geometry" />
        </mxCell>
        <mxCell id="nL2CvM_2TXP2n6H3hURv-351" value="" style="shape=flexArrow;endArrow=classic;html=1;rounded=0;fontSize=30;" parent="1" edge="1">
          <mxGeometry width="50" height="50" relative="1" as="geometry">
            <mxPoint x="8263" y="363" as="sourcePoint" />
            <mxPoint x="8263" y="438" as="targetPoint" />
          </mxGeometry>
        </mxCell>
        <mxCell id="v3GUym4bY_CexFFMT5ni-2" value="main" style="text;html=1;strokeColor=none;fillColor=none;align=center;verticalAlign=middle;whiteSpace=wrap;overflow=hidden;fontSize=23;fontStyle=1;fontFamily=Courier New;" parent="1" vertex="1">
          <mxGeometry x="1258.25" y="512" width="77" height="42" as="geometry" />
        </mxCell>
        <mxCell id="v3GUym4bY_CexFFMT5ni-3" value="feature" style="text;html=1;strokeColor=none;fillColor=none;align=left;verticalAlign=middle;whiteSpace=wrap;overflow=hidden;fontSize=23;fontStyle=1;fontFamily=Courier New;" parent="1" vertex="1">
          <mxGeometry x="1258.25" y="604" width="258" height="40" as="geometry" />
        </mxCell>
        <mxCell id="v3GUym4bY_CexFFMT5ni-4" value="The feature branch" style="text;html=1;strokeColor=none;fillColor=none;align=left;verticalAlign=middle;whiteSpace=wrap;overflow=hidden;fontSize=23;fontStyle=0;fontColor=#009900;" parent="1" vertex="1">
          <mxGeometry x="1258.25" y="630" width="348" height="43" as="geometry" />
        </mxCell>
        <mxCell id="v3GUym4bY_CexFFMT5ni-5" value="The main branch&lt;br style=&quot;font-size: 23px;&quot;&gt;" style="text;html=1;strokeColor=none;fillColor=none;align=left;verticalAlign=middle;whiteSpace=wrap;overflow=hidden;fontSize=23;fontStyle=0;fontColor=#009900;" parent="1" vertex="1">
          <mxGeometry x="1262.5" y="539" width="264" height="42" as="geometry" />
        </mxCell>
        <mxCell id="v3GUym4bY_CexFFMT5ni-15" value="main" style="text;html=1;strokeColor=none;fillColor=none;align=center;verticalAlign=middle;whiteSpace=wrap;overflow=hidden;fontSize=23;fontStyle=1;fontFamily=Courier New;" parent="1" vertex="1">
          <mxGeometry x="2227" y="226" width="77" height="42" as="geometry" />
        </mxCell>
        <mxCell id="v3GUym4bY_CexFFMT5ni-16" value="feature" style="text;html=1;strokeColor=none;fillColor=none;align=left;verticalAlign=middle;whiteSpace=wrap;overflow=hidden;fontSize=23;fontStyle=1;fontFamily=Courier New;" parent="1" vertex="1">
          <mxGeometry x="2227" y="318" width="258" height="40" as="geometry" />
        </mxCell>
        <mxCell id="v3GUym4bY_CexFFMT5ni-17" value="The feature branch" style="text;html=1;strokeColor=none;fillColor=none;align=left;verticalAlign=middle;whiteSpace=wrap;overflow=hidden;fontSize=23;fontStyle=0;fontColor=#009900;" parent="1" vertex="1">
          <mxGeometry x="2227" y="344" width="348" height="43" as="geometry" />
        </mxCell>
        <mxCell id="v3GUym4bY_CexFFMT5ni-18" value="The main branch&lt;br style=&quot;font-size: 23px;&quot;&gt;" style="text;html=1;strokeColor=none;fillColor=none;align=left;verticalAlign=middle;whiteSpace=wrap;overflow=hidden;fontSize=23;fontStyle=0;fontColor=#009900;" parent="1" vertex="1">
          <mxGeometry x="2231.25" y="253" width="264" height="42" as="geometry" />
        </mxCell>
        <mxCell id="v3GUym4bY_CexFFMT5ni-19" value="main" style="text;html=1;strokeColor=none;fillColor=none;align=center;verticalAlign=middle;whiteSpace=wrap;overflow=hidden;fontSize=23;fontStyle=1;fontFamily=Courier New;" parent="1" vertex="1">
          <mxGeometry x="2227" y="485.5" width="77" height="42" as="geometry" />
        </mxCell>
        <mxCell id="v3GUym4bY_CexFFMT5ni-20" value="feature" style="text;html=1;strokeColor=none;fillColor=none;align=left;verticalAlign=middle;whiteSpace=wrap;overflow=hidden;fontSize=23;fontStyle=1;fontFamily=Courier New;" parent="1" vertex="1">
          <mxGeometry x="2227" y="577.5" width="258" height="40" as="geometry" />
        </mxCell>
        <mxCell id="v3GUym4bY_CexFFMT5ni-21" value="The feature branch" style="text;html=1;strokeColor=none;fillColor=none;align=left;verticalAlign=middle;whiteSpace=wrap;overflow=hidden;fontSize=23;fontStyle=0;fontColor=#009900;" parent="1" vertex="1">
          <mxGeometry x="2227" y="603.5" width="348" height="43" as="geometry" />
        </mxCell>
        <mxCell id="v3GUym4bY_CexFFMT5ni-22" value="The main branch&lt;br style=&quot;font-size: 23px;&quot;&gt;" style="text;html=1;strokeColor=none;fillColor=none;align=left;verticalAlign=middle;whiteSpace=wrap;overflow=hidden;fontSize=23;fontStyle=0;fontColor=#009900;" parent="1" vertex="1">
          <mxGeometry x="2231.25" y="512.5" width="264" height="42" as="geometry" />
        </mxCell>
        <mxCell id="v3GUym4bY_CexFFMT5ni-238" value="main" style="text;html=1;strokeColor=none;fillColor=none;align=center;verticalAlign=middle;whiteSpace=wrap;overflow=hidden;fontSize=23;fontStyle=1;fontFamily=Courier New;" parent="1" vertex="1">
          <mxGeometry x="3406" y="226" width="77" height="42" as="geometry" />
        </mxCell>
        <mxCell id="v3GUym4bY_CexFFMT5ni-239" value="feature" style="text;html=1;strokeColor=none;fillColor=none;align=left;verticalAlign=middle;whiteSpace=wrap;overflow=hidden;fontSize=23;fontStyle=1;fontFamily=Courier New;" parent="1" vertex="1">
          <mxGeometry x="3406" y="318" width="258" height="40" as="geometry" />
        </mxCell>
        <mxCell id="v3GUym4bY_CexFFMT5ni-240" value="The feature branch" style="text;html=1;strokeColor=none;fillColor=none;align=left;verticalAlign=middle;whiteSpace=wrap;overflow=hidden;fontSize=23;fontStyle=0;fontColor=#009900;" parent="1" vertex="1">
          <mxGeometry x="3406" y="344" width="348" height="43" as="geometry" />
        </mxCell>
        <mxCell id="v3GUym4bY_CexFFMT5ni-241" value="The main branch&lt;br style=&quot;font-size: 23px;&quot;&gt;" style="text;html=1;strokeColor=none;fillColor=none;align=left;verticalAlign=middle;whiteSpace=wrap;overflow=hidden;fontSize=23;fontStyle=0;fontColor=#009900;" parent="1" vertex="1">
          <mxGeometry x="3410.25" y="253" width="264" height="42" as="geometry" />
        </mxCell>
        <mxCell id="v3GUym4bY_CexFFMT5ni-242" value="main" style="text;html=1;strokeColor=none;fillColor=none;align=center;verticalAlign=middle;whiteSpace=wrap;overflow=hidden;fontSize=23;fontStyle=1;fontFamily=Courier New;" parent="1" vertex="1">
          <mxGeometry x="3410.25" y="479.5" width="77" height="42" as="geometry" />
        </mxCell>
        <mxCell id="v3GUym4bY_CexFFMT5ni-243" value="feature" style="text;html=1;strokeColor=none;fillColor=none;align=left;verticalAlign=middle;whiteSpace=wrap;overflow=hidden;fontSize=23;fontStyle=1;fontFamily=Courier New;" parent="1" vertex="1">
          <mxGeometry x="3410.25" y="571.5" width="258" height="40" as="geometry" />
        </mxCell>
        <mxCell id="v3GUym4bY_CexFFMT5ni-244" value="The feature branch" style="text;html=1;strokeColor=none;fillColor=none;align=left;verticalAlign=middle;whiteSpace=wrap;overflow=hidden;fontSize=23;fontStyle=0;fontColor=#009900;" parent="1" vertex="1">
          <mxGeometry x="3410.25" y="597.5" width="348" height="43" as="geometry" />
        </mxCell>
        <mxCell id="v3GUym4bY_CexFFMT5ni-245" value="The main branch&lt;br style=&quot;font-size: 23px;&quot;&gt;" style="text;html=1;strokeColor=none;fillColor=none;align=left;verticalAlign=middle;whiteSpace=wrap;overflow=hidden;fontSize=23;fontStyle=0;fontColor=#009900;" parent="1" vertex="1">
          <mxGeometry x="3414.5" y="506.5" width="264" height="42" as="geometry" />
        </mxCell>
        <mxCell id="v3GUym4bY_CexFFMT5ni-246" value="main" style="text;html=1;strokeColor=none;fillColor=none;align=center;verticalAlign=middle;whiteSpace=wrap;overflow=hidden;fontSize=23;fontStyle=1;fontFamily=Courier New;" parent="1" vertex="1">
          <mxGeometry x="4520" y="240" width="77" height="42" as="geometry" />
        </mxCell>
        <mxCell id="v3GUym4bY_CexFFMT5ni-247" value="feature" style="text;html=1;strokeColor=none;fillColor=none;align=left;verticalAlign=middle;whiteSpace=wrap;overflow=hidden;fontSize=23;fontStyle=1;fontFamily=Courier New;" parent="1" vertex="1">
          <mxGeometry x="4520" y="332" width="258" height="40" as="geometry" />
        </mxCell>
        <mxCell id="v3GUym4bY_CexFFMT5ni-248" value="The feature branch" style="text;html=1;strokeColor=none;fillColor=none;align=left;verticalAlign=middle;whiteSpace=wrap;overflow=hidden;fontSize=23;fontStyle=0;fontColor=#009900;" parent="1" vertex="1">
          <mxGeometry x="4520" y="358" width="348" height="43" as="geometry" />
        </mxCell>
        <mxCell id="v3GUym4bY_CexFFMT5ni-249" value="The main branch&lt;br style=&quot;font-size: 23px;&quot;&gt;" style="text;html=1;strokeColor=none;fillColor=none;align=left;verticalAlign=middle;whiteSpace=wrap;overflow=hidden;fontSize=23;fontStyle=0;fontColor=#009900;" parent="1" vertex="1">
          <mxGeometry x="4524.25" y="267" width="264" height="42" as="geometry" />
        </mxCell>
        <mxCell id="v3GUym4bY_CexFFMT5ni-250" value="main" style="text;html=1;strokeColor=none;fillColor=none;align=center;verticalAlign=middle;whiteSpace=wrap;overflow=hidden;fontSize=23;fontStyle=1;fontFamily=Courier New;" parent="1" vertex="1">
          <mxGeometry x="4524.25" y="496" width="77" height="42" as="geometry" />
        </mxCell>
        <mxCell id="v3GUym4bY_CexFFMT5ni-251" value="feature" style="text;html=1;strokeColor=none;fillColor=none;align=left;verticalAlign=middle;whiteSpace=wrap;overflow=hidden;fontSize=23;fontStyle=1;fontFamily=Courier New;" parent="1" vertex="1">
          <mxGeometry x="4524.25" y="588" width="258" height="40" as="geometry" />
        </mxCell>
        <mxCell id="v3GUym4bY_CexFFMT5ni-252" value="The feature branch" style="text;html=1;strokeColor=none;fillColor=none;align=left;verticalAlign=middle;whiteSpace=wrap;overflow=hidden;fontSize=23;fontStyle=0;fontColor=#009900;" parent="1" vertex="1">
          <mxGeometry x="4524.25" y="614" width="348" height="43" as="geometry" />
        </mxCell>
        <mxCell id="v3GUym4bY_CexFFMT5ni-253" value="The main branch&lt;br style=&quot;font-size: 23px;&quot;&gt;" style="text;html=1;strokeColor=none;fillColor=none;align=left;verticalAlign=middle;whiteSpace=wrap;overflow=hidden;fontSize=23;fontStyle=0;fontColor=#009900;" parent="1" vertex="1">
          <mxGeometry x="4528.5" y="523" width="264" height="42" as="geometry" />
        </mxCell>
        <mxCell id="v3GUym4bY_CexFFMT5ni-254" value="main" style="text;html=1;strokeColor=none;fillColor=none;align=center;verticalAlign=middle;whiteSpace=wrap;overflow=hidden;fontSize=23;fontStyle=1;fontFamily=Courier New;" parent="1" vertex="1">
          <mxGeometry x="5599" y="245.5" width="77" height="42" as="geometry" />
        </mxCell>
        <mxCell id="v3GUym4bY_CexFFMT5ni-255" value="feature" style="text;html=1;strokeColor=none;fillColor=none;align=left;verticalAlign=middle;whiteSpace=wrap;overflow=hidden;fontSize=23;fontStyle=1;fontFamily=Courier New;" parent="1" vertex="1">
          <mxGeometry x="5599" y="337.5" width="258" height="40" as="geometry" />
        </mxCell>
        <mxCell id="v3GUym4bY_CexFFMT5ni-256" value="The feature branch" style="text;html=1;strokeColor=none;fillColor=none;align=left;verticalAlign=middle;whiteSpace=wrap;overflow=hidden;fontSize=23;fontStyle=0;fontColor=#009900;" parent="1" vertex="1">
          <mxGeometry x="5599" y="363.5" width="348" height="43" as="geometry" />
        </mxCell>
        <mxCell id="v3GUym4bY_CexFFMT5ni-257" value="The main branch&lt;br style=&quot;font-size: 23px;&quot;&gt;" style="text;html=1;strokeColor=none;fillColor=none;align=left;verticalAlign=middle;whiteSpace=wrap;overflow=hidden;fontSize=23;fontStyle=0;fontColor=#009900;" parent="1" vertex="1">
          <mxGeometry x="5603.25" y="272.5" width="264" height="42" as="geometry" />
        </mxCell>
        <mxCell id="v3GUym4bY_CexFFMT5ni-258" value="main" style="text;html=1;strokeColor=none;fillColor=none;align=center;verticalAlign=middle;whiteSpace=wrap;overflow=hidden;fontSize=23;fontStyle=1;fontFamily=Courier New;" parent="1" vertex="1">
          <mxGeometry x="5603.25" y="496" width="77" height="42" as="geometry" />
        </mxCell>
        <mxCell id="v3GUym4bY_CexFFMT5ni-259" value="feature" style="text;html=1;strokeColor=none;fillColor=none;align=left;verticalAlign=middle;whiteSpace=wrap;overflow=hidden;fontSize=23;fontStyle=1;fontFamily=Courier New;" parent="1" vertex="1">
          <mxGeometry x="5603.25" y="588" width="258" height="40" as="geometry" />
        </mxCell>
        <mxCell id="v3GUym4bY_CexFFMT5ni-260" value="The feature branch" style="text;html=1;strokeColor=none;fillColor=none;align=left;verticalAlign=middle;whiteSpace=wrap;overflow=hidden;fontSize=23;fontStyle=0;fontColor=#009900;" parent="1" vertex="1">
          <mxGeometry x="5603.25" y="614" width="348" height="43" as="geometry" />
        </mxCell>
        <mxCell id="v3GUym4bY_CexFFMT5ni-261" value="The main branch&lt;br style=&quot;font-size: 23px;&quot;&gt;" style="text;html=1;strokeColor=none;fillColor=none;align=left;verticalAlign=middle;whiteSpace=wrap;overflow=hidden;fontSize=23;fontStyle=0;fontColor=#009900;" parent="1" vertex="1">
          <mxGeometry x="5607.5" y="523" width="264" height="42" as="geometry" />
        </mxCell>
        <mxCell id="v3GUym4bY_CexFFMT5ni-262" value="main" style="text;html=1;strokeColor=none;fillColor=none;align=center;verticalAlign=middle;whiteSpace=wrap;overflow=hidden;fontSize=23;fontStyle=1;fontFamily=Courier New;" parent="1" vertex="1">
          <mxGeometry x="6716" y="257.5" width="77" height="42" as="geometry" />
        </mxCell>
        <mxCell id="v3GUym4bY_CexFFMT5ni-263" value="feature" style="text;html=1;strokeColor=none;fillColor=none;align=left;verticalAlign=middle;whiteSpace=wrap;overflow=hidden;fontSize=23;fontStyle=1;fontFamily=Courier New;" parent="1" vertex="1">
          <mxGeometry x="6716" y="349.5" width="258" height="40" as="geometry" />
        </mxCell>
        <mxCell id="v3GUym4bY_CexFFMT5ni-264" value="The feature branch" style="text;html=1;strokeColor=none;fillColor=none;align=left;verticalAlign=middle;whiteSpace=wrap;overflow=hidden;fontSize=23;fontStyle=0;fontColor=#009900;" parent="1" vertex="1">
          <mxGeometry x="6716" y="375.5" width="348" height="43" as="geometry" />
        </mxCell>
        <mxCell id="v3GUym4bY_CexFFMT5ni-265" value="The main branch&lt;br style=&quot;font-size: 23px;&quot;&gt;" style="text;html=1;strokeColor=none;fillColor=none;align=left;verticalAlign=middle;whiteSpace=wrap;overflow=hidden;fontSize=23;fontStyle=0;fontColor=#009900;" parent="1" vertex="1">
          <mxGeometry x="6720.25" y="284.5" width="264" height="42" as="geometry" />
        </mxCell>
        <mxCell id="v3GUym4bY_CexFFMT5ni-266" value="main" style="text;html=1;strokeColor=none;fillColor=none;align=center;verticalAlign=middle;whiteSpace=wrap;overflow=hidden;fontSize=23;fontStyle=1;fontFamily=Courier New;" parent="1" vertex="1">
          <mxGeometry x="6720.25" y="483" width="77" height="42" as="geometry" />
        </mxCell>
        <mxCell id="v3GUym4bY_CexFFMT5ni-267" value="feature" style="text;html=1;strokeColor=none;fillColor=none;align=left;verticalAlign=middle;whiteSpace=wrap;overflow=hidden;fontSize=23;fontStyle=1;fontFamily=Courier New;" parent="1" vertex="1">
          <mxGeometry x="6720.25" y="575" width="258" height="40" as="geometry" />
        </mxCell>
        <mxCell id="v3GUym4bY_CexFFMT5ni-268" value="The feature branch" style="text;html=1;strokeColor=none;fillColor=none;align=left;verticalAlign=middle;whiteSpace=wrap;overflow=hidden;fontSize=23;fontStyle=0;fontColor=#009900;" parent="1" vertex="1">
          <mxGeometry x="6720.25" y="601" width="348" height="43" as="geometry" />
        </mxCell>
        <mxCell id="v3GUym4bY_CexFFMT5ni-269" value="The main branch&lt;br style=&quot;font-size: 23px;&quot;&gt;" style="text;html=1;strokeColor=none;fillColor=none;align=left;verticalAlign=middle;whiteSpace=wrap;overflow=hidden;fontSize=23;fontStyle=0;fontColor=#009900;" parent="1" vertex="1">
          <mxGeometry x="6724.5" y="510" width="264" height="42" as="geometry" />
        </mxCell>
        <mxCell id="v3GUym4bY_CexFFMT5ni-270" value="main" style="text;html=1;strokeColor=none;fillColor=none;align=center;verticalAlign=middle;whiteSpace=wrap;overflow=hidden;fontSize=23;fontStyle=1;fontFamily=Courier New;" parent="1" vertex="1">
          <mxGeometry x="7955.75" y="217" width="77" height="42" as="geometry" />
        </mxCell>
        <mxCell id="v3GUym4bY_CexFFMT5ni-271" value="feature" style="text;html=1;strokeColor=none;fillColor=none;align=left;verticalAlign=middle;whiteSpace=wrap;overflow=hidden;fontSize=23;fontStyle=1;fontFamily=Courier New;" parent="1" vertex="1">
          <mxGeometry x="7955.75" y="309" width="258" height="40" as="geometry" />
        </mxCell>
        <mxCell id="v3GUym4bY_CexFFMT5ni-272" value="The feature branch" style="text;html=1;strokeColor=none;fillColor=none;align=left;verticalAlign=middle;whiteSpace=wrap;overflow=hidden;fontSize=23;fontStyle=0;fontColor=#009900;" parent="1" vertex="1">
          <mxGeometry x="7955.75" y="335" width="348" height="43" as="geometry" />
        </mxCell>
        <mxCell id="v3GUym4bY_CexFFMT5ni-273" value="The main branch&lt;br style=&quot;font-size: 23px;&quot;&gt;" style="text;html=1;strokeColor=none;fillColor=none;align=left;verticalAlign=middle;whiteSpace=wrap;overflow=hidden;fontSize=23;fontStyle=0;fontColor=#009900;" parent="1" vertex="1">
          <mxGeometry x="7960" y="244" width="264" height="42" as="geometry" />
        </mxCell>
        <mxCell id="v3GUym4bY_CexFFMT5ni-274" value="main" style="text;html=1;strokeColor=none;fillColor=none;align=center;verticalAlign=middle;whiteSpace=wrap;overflow=hidden;fontSize=23;fontStyle=1;fontFamily=Courier New;" parent="1" vertex="1">
          <mxGeometry x="7958" y="457" width="77" height="42" as="geometry" />
        </mxCell>
        <mxCell id="v3GUym4bY_CexFFMT5ni-275" value="feature" style="text;html=1;strokeColor=none;fillColor=none;align=left;verticalAlign=middle;whiteSpace=wrap;overflow=hidden;fontSize=23;fontStyle=1;fontFamily=Courier New;" parent="1" vertex="1">
          <mxGeometry x="7958" y="549" width="258" height="40" as="geometry" />
        </mxCell>
        <mxCell id="v3GUym4bY_CexFFMT5ni-276" value="The feature branch" style="text;html=1;strokeColor=none;fillColor=none;align=left;verticalAlign=middle;whiteSpace=wrap;overflow=hidden;fontSize=23;fontStyle=0;fontColor=#009900;" parent="1" vertex="1">
          <mxGeometry x="7958" y="575" width="348" height="43" as="geometry" />
        </mxCell>
        <mxCell id="v3GUym4bY_CexFFMT5ni-277" value="The main branch&lt;br style=&quot;font-size: 23px;&quot;&gt;" style="text;html=1;strokeColor=none;fillColor=none;align=left;verticalAlign=middle;whiteSpace=wrap;overflow=hidden;fontSize=23;fontStyle=0;fontColor=#009900;" parent="1" vertex="1">
          <mxGeometry x="7962.25" y="484" width="264" height="42" as="geometry" />
        </mxCell>
        <mxCell id="UpaYWz6Gppfl74PbtKEu-3" value="Merge &lt;br&gt;Commit" style="verticalLabelPosition=bottom;verticalAlign=top;html=1;strokeWidth=4;shape=mxgraph.flowchart.on-page_reference;plain-blue;gradientColor=none;strokeColor=#33001A;fillColor=#B5E3FE;fontSize=30;" vertex="1" parent="1">
          <mxGeometry x="6336" y="527.5" width="30" height="30" as="geometry" />
        </mxCell>
      </root>
    </mxGraphModel>
  </diagram>
</mxfile>
